<svg width="150" height="150" viewBox="0 0 150 150" fill="none" xmlns="http://www.w3.org/2000/svg">
<g clip-path="url(#clip0)">
<path d="M109.883 41.5814C109.339 41.0365 108.583 40.723 107.812 40.723C107.042 40.723 106.286 41.0365 105.741 41.5814C105.196 42.1263 104.883 42.8793 104.883 43.6527C104.883 44.4232 105.196 45.1791 105.741 45.724C106.286 46.2689 107.042 46.5824 107.812 46.5824C108.583 46.5824 109.339 46.2689 109.883 45.724C110.428 45.1791 110.742 44.4232 110.742 43.6527C110.742 42.8822 110.429 42.1263 109.883 41.5814Z" fill="black"/>
<path d="M43.9453 82.6176H20.5078C18.89 82.6176 17.5781 83.9292 17.5781 85.5472V108.985C17.5781 110.603 18.89 111.914 20.5078 111.914H43.9453C45.563 111.914 46.8749 110.603 46.8749 108.985V85.5472C46.8749 83.9292 45.5633 82.6176 43.9453 82.6176ZM41.0156 106.055H23.4375V88.4769H41.0156V106.055Z" fill="#EFC94F"/>
<path d="M148.191 61.4536C147.097 60.9998 145.836 61.2512 144.999 62.0885L115.146 91.9414C115.145 91.942 115.145 91.9423 115.144 91.9429C115.144 91.9435 115.143 91.9438 115.143 91.9443L80.3431 126.744C80.3425 126.745 80.3422 126.745 80.3416 126.746C80.3411 126.746 80.3408 126.747 80.3402 126.747L62.0885 144.999C61.2509 145.837 61.0002 147.097 61.4534 148.192C61.9069 149.286 62.9751 150 64.1601 150H147.07C148.688 150 150 148.689 150 147.07V64.1604C150 62.9756 149.286 61.9072 148.191 61.4536ZM144.141 144.141H71.2332L82.4132 132.961L85.2099 135.757C85.7821 136.33 86.5318 136.616 87.2815 136.616C88.0312 136.616 88.7809 136.33 89.3531 135.757C90.4971 134.613 90.4971 132.758 89.3531 131.614L86.5564 128.817L94.0142 121.36L96.8106 124.156C97.3827 124.728 98.1324 125.014 98.8821 125.014C99.6319 125.014 100.382 124.728 100.954 124.156C102.098 123.012 102.098 121.157 100.954 120.013L98.1571 117.216L105.615 109.758L108.412 112.555C108.984 113.127 109.733 113.413 110.483 113.413C111.233 113.413 111.983 113.127 112.555 112.555C113.699 111.411 113.699 109.556 112.555 108.412L109.758 105.615L117.216 98.1573L120.012 100.954C120.584 101.526 121.334 101.812 122.084 101.812C122.833 101.812 123.583 101.526 124.155 100.954C125.299 99.81 125.299 97.9549 124.155 96.8105L121.359 94.0139L128.816 86.5561L131.613 89.3524C132.185 89.9246 132.935 90.2106 133.684 90.2106C134.434 90.2106 135.184 89.9243 135.756 89.3524C136.9 88.2084 136.9 86.3533 135.756 85.2093L132.959 82.4126L144.141 71.2332V144.141Z" fill="black"/>
<path d="M133.543 96.8183C132.448 96.3645 131.188 96.6156 130.35 97.4532L97.4529 130.351C96.6153 131.188 96.3642 132.449 96.8178 133.543C97.2713 134.638 98.3394 135.352 99.5245 135.352H132.422C134.039 135.352 135.351 134.04 135.351 132.422V99.5251C135.351 98.3403 134.638 97.2718 133.543 96.8183ZM129.492 129.492H106.598L129.492 106.598V129.492Z" fill="#EFC94F"/>
<path d="M135.662 43.7289C134.855 42.9227 133.655 42.6572 132.583 43.0495L112.579 50.3752C112.179 50.5217 111.816 50.7534 111.514 51.0546L105.89 56.6793L69.1613 19.9507C68.6116 19.4014 67.8666 19.0926 67.0897 19.0926C66.3127 19.0926 65.5674 19.4014 65.0181 19.9507L20.8083 64.1605H10.0028L67.0897 7.0733L98.4165 38.4001C99.5608 39.5441 101.415 39.5441 102.56 38.4001C103.704 37.2561 103.704 35.401 102.56 34.2566L69.1616 0.858275C68.0172 -0.285766 66.1627 -0.285766 65.0181 0.858275L0.85806 65.0183C0.0204643 65.8562 -0.230316 67.1163 0.222905 68.2111C0.67642 69.3062 1.74458 70.0199 2.92964 70.0199H5.85932V147.071C5.85932 148.689 7.17123 150 8.789 150H55.3668C56.9846 150 58.2965 148.689 58.2965 147.071C58.2965 145.452 56.9846 144.141 55.3668 144.141H11.7187V70.0199H22.0218C22.7987 70.0199 23.5438 69.7111 24.0934 69.1618L67.0897 26.1655L101.746 60.8221L58.3006 104.268V77.93H78.8084C80.4262 77.93 81.7381 76.6184 81.7381 75.0003C81.7381 73.3823 80.4262 72.0706 78.8084 72.0706H55.3709C53.7532 72.0706 52.4413 73.3823 52.4413 75.0003V108.985C52.4413 109.327 52.5028 109.653 52.6103 109.958L49.9856 112.583C45.3479 117.22 45.3479 124.767 49.9856 129.404C52.3047 131.723 55.3501 132.883 58.3964 132.883C61.4421 132.883 64.4887 131.723 66.8073 129.405L91.5139 104.698C92.6579 103.554 92.6579 101.699 91.5139 100.555C90.3698 99.4107 88.5153 99.4107 87.3704 100.555L68.6521 119.273L60.117 110.738L113.644 57.2107L122.179 65.7458L101.726 86.1996C100.582 87.3437 100.582 89.1987 101.726 90.3428C102.87 91.4868 104.725 91.4868 105.869 90.3428L128.336 67.8762C128.637 67.5751 128.869 67.2118 129.015 66.8122L136.341 46.808C136.733 45.7369 136.468 44.5354 135.662 43.7289ZM64.5092 123.416L62.6641 125.261C61.5242 126.401 60.0089 127.029 58.3967 127.029C56.7845 127.029 55.269 126.401 54.1293 125.261C52.9891 124.121 52.3616 122.606 52.3616 120.994C52.3616 119.382 52.9888 117.866 54.1291 116.726L55.9742 114.881L64.5092 123.416ZM125.123 60.4017L118.988 54.2676L128.667 50.7229L125.123 60.4017Z" fill="black"/>
<path d="M98.6384 93.4281C98.0938 92.8832 97.3379 92.5697 96.5674 92.5697C95.7969 92.5697 95.041 92.8832 94.4961 93.4281C93.9512 93.976 93.6377 94.7289 93.6377 95.4994C93.6377 96.2728 93.9509 97.0258 94.4961 97.5736C95.041 98.1185 95.7939 98.4291 96.5674 98.4291C97.3379 98.4291 98.0938 98.1185 98.6384 97.5736C99.1833 97.0258 99.4971 96.2699 99.4971 95.4994C99.4971 94.7289 99.1836 93.976 98.6384 93.4281Z" fill="black"/>
<path d="M67.0898 44.2386C60.9513 44.2386 55.957 49.2329 55.957 55.3714C55.957 61.51 60.9513 66.5042 67.0898 66.5042C73.2284 66.5042 78.2226 61.51 78.2226 55.3714C78.2226 49.2329 73.2284 44.2386 67.0898 44.2386ZM67.0898 60.6449C64.1821 60.6449 61.8164 58.2794 61.8164 55.3714C61.8164 52.4637 64.1821 50.098 67.0898 50.098C69.9975 50.098 72.3632 52.4637 72.3632 55.3714C72.3632 58.2791 69.9975 60.6449 67.0898 60.6449Z" fill="#EFC94F"/>
</g>
<defs>
<clipPath id="clip0">
<rect width="150" height="150" fill="white"/>
</clipPath>
</defs>
</svg>
