<svg width="140" height="140" viewBox="0 0 140 140" fill="none" xmlns="http://www.w3.org/2000/svg">
<path d="M18.4531 18.7171V134.815C18.4531 136.048 19.4556 137.047 20.6924 137.047H105.775C107.011 137.047 108.014 136.048 108.014 134.815V41.0442C108.014 40.9945 107.99 40.9522 107.985 40.9035C107.974 40.7076 107.935 40.5144 107.871 40.3296C107.846 40.2579 107.828 40.1889 107.797 40.119C107.688 39.8762 107.537 39.6546 107.349 39.4651L84.9589 17.139C84.7689 16.9504 84.5457 16.7996 84.3004 16.692C84.2331 16.6635 84.1648 16.6396 84.0947 16.6185C83.9075 16.5541 83.7129 16.5155 83.5146 16.5026C83.4768 16.509 83.4325 16.4851 83.3855 16.4851H20.6924C19.4556 16.4851 18.4531 17.4838 18.4531 18.7171ZM100.37 38.8113H85.6238V24.1071L100.37 38.8113ZM22.9307 20.95H81.1462V41.0442C81.1462 42.2765 82.1487 43.2761 83.3846 43.2761H103.536V132.583H22.9307V20.95Z" fill="black" stroke="black"/>
<path d="M112.369 119.05V123.515H119.068C120.301 123.515 121.301 122.516 121.301 121.283V5.18541C121.301 3.95217 120.301 2.95251 119.068 2.95251H34.2194C32.9861 2.95251 31.9863 3.95217 31.9863 5.18541V11.8832H36.4525V7.41738H116.835V119.05H112.369Z" fill="#EFC94F" stroke="#EFC94F"/>
<path d="M36.415 47.7329H90.053V52.1617H36.415V47.7329Z" fill="black" stroke="black"/>
<path d="M36.415 34.2002H54.3764V38.629H36.415V34.2002Z" fill="black" stroke="black"/>
<path d="M36.415 61.0194H72.0917V65.4482H36.415V61.0194Z" fill="#EFC94F" stroke="#EFC94F"/>
<path d="M76.5205 61.0194H90.053V65.4482H76.5205V61.0194Z" fill="black" stroke="black"/>
<path d="M36.415 74.5518H90.053V78.9806H36.415V74.5518Z" fill="black" stroke="black"/>
<path d="M36.415 101.125H90.053V105.8H36.415V101.125Z" fill="black" stroke="black"/>
<path d="M56.5908 87.8384H90.053V92.2672H56.5908V87.8384Z" fill="black" stroke="black"/>
<path d="M36.415 87.8384H52.162V92.2672H36.415V87.8384Z" fill="#EFC94F" stroke="#EFC94F"/>
<path d="M36.415 114.657H45.2727V119.086H36.415V114.657Z" fill="black" stroke="black"/>
<path d="M49.9473 114.657H90.0527V119.086H49.9473V114.657Z" fill="#EFC94F" stroke="#EFC94F"/>
</svg>
