<svg width="30" height="30" viewBox="0 0 30 30" fill="none" xmlns="http://www.w3.org/2000/svg">
<path d="M28.6465 22.8198L22.8164 18.9318C22.0766 18.4424 21.0848 18.6035 20.5378 19.3019L18.8396 21.4854C18.6214 21.7732 18.2246 21.8567 17.9089 21.6813L17.5859 21.5032C16.515 20.9195 15.1825 20.1928 12.4979 17.5072C9.81325 14.8216 9.0851 13.4882 8.50139 12.4192L8.32426 12.0962C8.14646 11.7805 8.22836 11.3821 8.51624 11.1621L10.6983 9.46438C11.3965 8.91736 11.5577 7.9259 11.0689 7.18582L7.18087 1.35575C6.67986 0.602116 5.67467 0.37588 4.89904 0.842134L2.46112 2.3066C1.69511 2.75693 1.13312 3.48627 0.892988 4.34177C0.0150973 7.54047 0.675526 13.0609 8.80767 21.194C15.2766 27.6625 20.0925 29.402 23.4025 29.402C24.1643 29.4053 24.9231 29.3062 25.6585 29.1073C26.5142 28.8675 27.2437 28.3054 27.6937 27.5392L29.1596 25.1027C29.6266 24.3269 29.4004 23.3211 28.6465 22.8198ZM28.3325 24.6102L26.87 27.0481C26.5468 27.6012 26.0222 28.0078 25.406 28.1829C22.453 28.9936 17.294 28.3221 9.48683 20.5149C1.67964 12.7077 1.00819 7.54914 1.81892 4.59574C1.99419 3.97879 2.40133 3.45347 2.95505 3.12981L5.39297 1.66726C5.72952 1.46476 6.16579 1.56292 6.38319 1.88996L8.49521 5.06081L10.2679 7.71952C10.4801 8.04053 10.4104 8.47079 10.1076 8.70833L7.925 10.4061C7.2608 10.9139 7.07113 11.8329 7.48007 12.5622L7.65337 12.8771C8.26683 14.0022 9.02952 15.4019 11.814 18.1859C14.5985 20.9699 15.9977 21.7326 17.1223 22.346L17.4376 22.5198C18.1669 22.9287 19.0859 22.7391 19.5938 22.0749L21.2915 19.8923C21.5291 19.5896 21.9592 19.5199 22.2803 19.732L28.1099 23.62C28.4372 23.8372 28.5353 24.2737 28.3325 24.6102Z" fill="#EFC94F" stroke="#EFC94F" stroke-width="0.5"/>
<path d="M16.9199 5.40143C21.4245 5.40643 25.0748 9.05688 25.0799 13.5614C25.0799 13.8265 25.2948 14.0414 25.5599 14.0414C25.825 14.0414 26.0399 13.8265 26.0399 13.5614C26.0343 8.52689 21.9544 4.44698 16.9199 4.44147C16.6548 4.44147 16.4399 4.65634 16.4399 4.92145C16.4399 5.18655 16.6548 5.40143 16.9199 5.40143Z" fill="#EFC94F" stroke="#EFC94F" stroke-width="0.5"/>
<path d="M16.9199 8.28137C19.8346 8.2848 22.1965 10.6467 22.1999 13.5614C22.1999 13.8265 22.4148 14.0414 22.6799 14.0414C22.945 14.0414 23.1599 13.8265 23.1599 13.5614C23.1559 10.1167 20.3645 7.32535 16.9199 7.32141C16.6548 7.32141 16.4399 7.53629 16.4399 7.80139C16.4399 8.0665 16.6548 8.28137 16.9199 8.28137Z" fill="#EFC94F" stroke="#EFC94F" stroke-width="0.5"/>
<path d="M16.9199 11.1613C18.2447 11.1629 19.3183 12.2365 19.3199 13.5613C19.3199 13.8264 19.5349 14.0413 19.7999 14.0413C20.065 14.0413 20.2799 13.8264 20.2799 13.5613C20.2778 11.7065 18.7747 10.2034 16.9199 10.2014C16.6548 10.2014 16.4399 10.4162 16.4399 10.6813C16.4399 10.9464 16.6548 11.1613 16.9199 11.1613Z" fill="#EFC94F" stroke="#EFC94F" stroke-width="0.5"/>
</svg>
