<svg width="75" height="75" viewBox="0 0 75 75" fill="none" xmlns="http://www.w3.org/2000/svg">
<path d="M37.5 0C22.9611 0 11.1328 11.8283 11.1328 26.3672C11.1328 31.2794 12.4935 36.0732 15.0687 40.2322L35.9991 73.9613C36.4 74.6074 37.1064 75 37.8661 75C37.8719 75 37.8776 75 37.8835 75C38.6498 74.994 39.3576 74.5893 39.7512 73.9318L60.1481 39.876C62.5812 35.8049 63.8672 31.1336 63.8672 26.3672C63.8672 11.8283 52.0389 0 37.5 0ZM56.3769 37.6198L37.8328 68.5819L18.8038 37.9169C16.6603 34.4552 15.498 30.4614 15.498 26.3672C15.498 14.2515 25.3843 4.36523 37.5 4.36523C49.6157 4.36523 59.4873 14.2515 59.4873 26.3672C59.4873 30.34 58.4017 34.2316 56.3769 37.6198Z" fill="black"/>
<path d="M37.5 13.1836C30.2306 13.1836 24.3164 19.0978 24.3164 26.3672C24.3164 33.5902 30.1343 39.5508 37.5 39.5508C44.9565 39.5508 50.6836 33.5108 50.6836 26.3672C50.6836 19.0978 44.7694 13.1836 37.5 13.1836ZM37.5 35.1855C32.6284 35.1855 28.6816 31.2256 28.6816 26.3672C28.6816 21.5209 32.6537 17.5488 37.5 17.5488C42.3463 17.5488 46.3037 21.5209 46.3037 26.3672C46.3037 31.1547 42.4488 35.1855 37.5 35.1855Z" fill="black"/>
</svg>
