<svg width="36" height="36" viewBox="0 0 36 36" fill="none" xmlns="http://www.w3.org/2000/svg">
<path d="M31.646 25.82L25.8159 21.932C25.0761 21.4425 24.0843 21.6036 23.5374 22.302L21.8391 24.4855C21.6209 24.7733 21.2241 24.8568 20.9084 24.6814L20.5854 24.5033C19.5145 23.9196 18.182 23.1929 15.4974 20.5073C12.8128 17.8217 12.0846 16.4883 11.5009 15.4194L11.3238 15.0963C11.146 14.7806 11.2279 14.3822 11.5158 14.1622L13.6978 12.4645C14.396 11.9175 14.5572 10.926 14.0684 10.1859L10.1804 4.35587C9.67937 3.60224 8.67418 3.376 7.89855 3.84226L5.46063 5.30672C4.69462 5.75706 4.13263 6.48639 3.8925 7.34189C3.01461 10.5406 3.67504 16.0611 11.8072 24.1942C18.2761 30.6626 23.092 32.4021 26.402 32.4021C27.1638 32.4054 27.9226 32.3063 28.6581 32.1074C29.5137 31.8676 30.2432 31.3055 30.6932 30.5393L32.1592 28.1028C32.6261 27.3271 32.4 26.3213 31.646 25.82ZM31.3321 27.6103L29.8695 30.0483C29.5464 30.6013 29.0217 31.0079 28.4055 31.183C25.4525 31.9937 20.2935 31.3222 12.4863 23.515C4.67915 15.7078 4.0077 10.5493 4.81843 7.59586C4.9937 6.97891 5.40084 6.4536 5.95456 6.12994L8.39248 4.66738C8.72903 4.46489 9.1653 4.56304 9.38271 4.89008L11.4947 8.06093L13.2674 10.7196C13.4797 11.0407 13.4099 11.4709 13.1071 11.7085L10.9245 13.4062C10.2603 13.9141 10.0706 14.833 10.4796 15.5624L10.6529 15.8772C11.2663 17.0023 12.029 18.402 14.8135 21.186C17.598 23.97 18.9972 24.7328 20.1218 25.3462L20.4371 25.5199C21.1664 25.9288 22.0854 25.7392 22.5933 25.075L24.291 22.8924C24.5286 22.5898 24.9587 22.5201 25.2799 22.7321L31.1094 26.6201C31.4367 26.8373 31.5348 27.2738 31.3321 27.6103Z" fill="#EFC94F" stroke="#EFC94F" stroke-width="0.5"/>
<path d="M19.9194 8.40137C24.424 8.40637 28.0744 12.0568 28.0794 16.5614C28.0794 16.8265 28.2943 17.0413 28.5594 17.0413C28.8245 17.0413 29.0394 16.8265 29.0394 16.5614C29.0338 11.5268 24.954 7.44692 19.9194 7.44141C19.6543 7.44141 19.4395 7.65628 19.4395 7.92139C19.4395 8.18649 19.6543 8.40137 19.9194 8.40137Z" fill="#EFC94F" stroke="#EFC94F" stroke-width="0.5"/>
<path d="M19.9194 11.2812C22.8341 11.2847 25.196 13.6466 25.1994 16.5612C25.1994 16.8264 25.4144 17.0412 25.6794 17.0412C25.9445 17.0412 26.1594 16.8264 26.1594 16.5612C26.1554 13.1166 23.364 10.3252 19.9194 10.3213C19.6543 10.3213 19.4395 10.5362 19.4395 10.8013C19.4395 11.0664 19.6543 11.2812 19.9194 11.2812Z" fill="#EFC94F" stroke="#EFC94F" stroke-width="0.5"/>
<path d="M19.9194 14.1616C21.2442 14.1632 22.3178 15.2368 22.3194 16.5616C22.3194 16.8267 22.5344 17.0416 22.7994 17.0416C23.0645 17.0416 23.2794 16.8267 23.2794 16.5616C23.2773 14.7068 21.7742 13.2037 19.9194 13.2017C19.6543 13.2017 19.4395 13.4165 19.4395 13.6816C19.4395 13.9467 19.6543 14.1616 19.9194 14.1616Z" fill="#EFC94F" stroke="#EFC94F" stroke-width="0.5"/>
</svg>
