<svg width="195" height="200" viewBox="0 0 195 200" fill="none" xmlns="http://www.w3.org/2000/svg">
<path d="M187.563 133.123L128.566 74.3048L107.737 53.5441C106.387 52.1819 104.672 51.2354 102.797 50.8173H102.775C102.046 50.6721 101.303 50.6015 100.559 50.6066C99.5869 50.6032 98.6187 50.7218 97.6768 50.9598L97.5586 50.9939C95.976 51.5202 94.5314 52.3926 93.3306 53.5472L84.1564 62.6912C83.8904 62.9415 83.6775 63.2425 83.5303 63.5764C83.3831 63.9102 83.3046 64.27 83.2993 64.6346C83.2941 64.9992 83.3623 65.3612 83.4999 65.6991C83.6375 66.0369 83.8416 66.3439 84.1003 66.6017C84.359 66.8596 84.667 67.0631 85.006 67.2002C85.345 67.3373 85.7081 67.4053 86.0739 67.4001C86.4397 67.3949 86.8008 67.3166 87.1357 67.1699C87.4706 67.0231 87.7726 66.8109 88.0238 66.5458L97.198 57.4018C98.0841 56.5191 99.2856 56.0233 100.538 56.0233C101.791 56.0233 102.993 56.5191 103.879 57.4018L122.349 75.8138L114.592 80.8924L105.116 74.2831C104.643 73.953 104.077 73.7806 103.5 73.7907C102.922 73.8007 102.363 73.9926 101.902 74.3389L93.2311 80.8459L84.915 75.3149C84.4663 75.015 83.9381 74.8553 83.3978 74.8563C83.0563 74.857 82.7179 74.9211 82.3999 75.0453L77.5998 76.9045L79.8351 74.6766C80.324 74.1606 80.5918 73.475 80.5816 72.7654C80.5715 72.0558 80.2841 71.3781 79.7806 70.8762C79.2771 70.3744 78.5972 70.088 77.8852 70.0778C77.1733 70.0677 76.4854 70.3346 75.9677 70.8219L64.5458 82.2124L12.7929 133.814C12.5269 134.064 12.314 134.365 12.1668 134.699C12.0196 135.033 11.9411 135.392 11.9358 135.757C11.9306 136.122 11.9988 136.484 12.1364 136.822C12.274 137.159 12.4781 137.466 12.7368 137.724C12.9955 137.982 13.3035 138.186 13.6425 138.323C13.9815 138.46 14.3446 138.528 14.7104 138.523C15.0762 138.517 15.4373 138.439 15.7722 138.292C16.1071 138.146 16.4091 137.933 16.6603 137.668L67.9562 86.5195L83.0559 80.6321L91.8073 86.4513C92.2548 86.7512 92.782 86.9109 93.3213 86.9099C93.9157 86.9104 94.4941 86.7178 94.969 86.3615L103.605 79.8761L112.978 86.4173C113.434 86.7354 113.977 86.9073 114.533 86.9099C115.074 86.9125 115.604 86.7527 116.053 86.4513L126.281 79.7273L183.695 136.977C183.947 137.242 184.249 137.455 184.583 137.601C184.918 137.748 185.279 137.826 185.645 137.832C186.011 137.837 186.374 137.769 186.713 137.632C187.052 137.495 187.36 137.291 187.619 137.033C187.878 136.775 188.082 136.468 188.219 136.131C188.357 135.793 188.425 135.431 188.42 135.066C188.415 134.702 188.336 134.342 188.189 134.008C188.042 133.674 187.829 133.373 187.563 133.123Z" fill="black"/>
<path d="M130.718 28.8172L124.009 22.9298L130.718 17.0425C131.269 16.558 131.659 15.9179 131.836 15.2071C132.013 14.4964 131.969 13.7487 131.709 13.0635C131.45 12.3783 130.987 11.7881 130.383 11.3714C129.779 10.9547 129.062 10.7312 128.327 10.7306H100.941V15.8557H124.257L119.286 20.2123C118.901 20.5508 118.593 20.9671 118.382 21.4335C118.17 21.8999 118.061 22.4057 118.061 22.9174C118.061 23.4292 118.17 23.935 118.382 24.4014C118.593 24.8678 118.901 25.2841 119.286 25.6225L124.245 29.9606H100.929V35.1043H128.314C129.045 35.1006 129.757 34.8768 130.357 34.4622C130.957 34.0477 131.418 33.4618 131.678 32.7816C131.938 32.1014 131.985 31.3587 131.814 30.6512C131.642 29.9436 131.26 29.3043 130.718 28.8172Z" fill="#EFC94F"/>
<path d="M158.405 154.785L154.528 153.484C153.927 153.283 153.385 152.938 152.949 152.48C152.197 151.699 151.861 145.598 151.861 144.81V144.761C151.904 144.699 151.945 144.643 151.985 144.581C152.091 144.426 152.193 144.271 152.296 144.101C154.254 140.865 155.445 137.227 155.781 133.463H152.719C152.408 136.983 150.916 140.925 148.907 143.577C148.796 143.726 148.684 143.887 148.565 144.011C148.286 144.358 147.983 144.686 147.661 144.993C147.445 145.199 147.219 145.394 146.983 145.576C146.209 146.291 145.192 146.688 144.137 146.688C143.081 146.688 142.065 146.291 141.291 145.576L140.98 145.325C140.518 144.926 140.093 144.487 139.708 144.014C139.593 143.878 139.481 143.732 139.373 143.583C137.364 140.931 135.866 136.99 135.561 133.47H132.496C132.835 137.238 134.029 140.881 135.987 144.123C136.13 144.346 136.273 144.566 136.416 144.783V144.82C136.416 145.591 136.015 151.86 135.173 152.653C134.765 153.033 134.281 153.32 133.752 153.496L129.878 154.794C127.903 155.455 126.098 156.543 124.593 157.98C124.581 157.988 124.571 157.999 124.562 158.011L124.534 158.032L124.441 158.128L124.376 158.203L124.307 158.28C124.282 158.311 124.257 158.345 124.233 158.382C124.209 158.413 124.187 158.445 124.167 158.478L124.145 158.513L124.105 158.578C124.087 158.605 124.07 158.634 124.055 158.664L124.04 158.692C124.026 158.72 124.013 158.749 124.002 158.779C123.981 158.822 123.962 158.866 123.947 158.9L123.912 158.996C123.912 159.036 123.884 159.077 123.875 159.12L123.847 159.219L123.819 159.343C123.812 159.383 123.807 159.423 123.804 159.464L123.788 159.56V159.693V159.795C123.788 159.839 123.788 159.885 123.788 159.926V159.966C123.788 159.966 123.788 159.997 123.788 160.031C123.788 160.065 123.788 160.118 123.804 160.158L123.822 160.26L123.85 160.378L123.881 160.499L123.915 160.601C123.934 160.648 123.953 160.694 123.968 160.737C123.978 160.755 123.987 160.774 123.993 160.793C124.731 162.395 125.111 164.137 125.106 165.9V179.044C125.099 179.668 125.328 180.271 125.747 180.734C126.167 181.197 126.746 181.485 127.369 181.541H127.534C128.175 181.541 128.79 181.286 129.243 180.834C129.697 180.383 129.952 179.77 129.953 179.131V165.89C129.955 164.108 129.676 162.337 129.126 160.641L129.089 160.53L129.188 160.465C129.885 160 130.641 159.629 131.436 159.362L135.306 158.066C135.985 157.837 136.632 157.525 137.234 157.137L137.33 157.109L137.395 157.131C138.989 157.58 140.639 157.803 142.295 157.794H142.509L145.379 157.76C147.144 157.747 148.896 157.472 150.58 156.945L150.732 156.895L150.798 156.942C151.482 157.416 152.231 157.793 153.02 158.06L156.891 159.355C158.783 159.992 160.427 161.204 161.59 162.821C162.754 164.438 163.378 166.379 163.376 168.369V179.028C163.369 179.652 163.598 180.256 164.017 180.719C164.437 181.182 165.016 181.47 165.639 181.526H165.804C166.122 181.526 166.436 181.464 166.73 181.343C167.024 181.222 167.291 181.045 167.515 180.821C167.74 180.597 167.918 180.331 168.039 180.038C168.161 179.746 168.223 179.432 168.223 179.115V168.375C168.224 165.37 167.277 162.44 165.515 160C163.753 157.561 161.265 155.737 158.405 154.785ZM147.359 152.811C146.262 153.045 145.145 153.176 144.023 153.202H143.66C142.709 153.201 141.76 153.125 140.821 152.975L140.635 152.944L140.703 152.768C140.79 152.529 140.927 151.77 141.064 149.511L141.082 149.167L141.117 149.186C142.046 149.649 143.071 149.891 144.11 149.891C145.15 149.891 146.175 149.649 147.104 149.186L147.145 149.164C147.145 149.279 147.145 149.393 147.145 149.511C147.266 151.655 147.381 152.374 147.456 152.61L147.512 152.774L147.359 152.811Z" fill="black"/>
<path d="M118.26 149.691L113.491 148.089C112.665 147.813 111.919 147.342 111.315 146.716C110.364 145.718 109.87 139.317 109.82 137.684V137.631C109.82 137.544 109.82 137.47 109.82 137.405C109.935 137.241 110.05 137.08 110.162 136.909C112.704 132.926 114.249 128.393 114.667 123.69H111.02C110.656 127.877 108.875 132.559 106.487 135.716C106.04 136.316 105.544 136.877 105.004 137.396C103.686 138.654 102.253 139.413 100.814 139.413C99.5327 139.413 98.2581 138.812 97.0643 137.795C96.3459 137.175 95.6975 136.479 95.1306 135.719C92.743 132.562 90.9617 127.88 90.5979 123.694H86.9637C87.3057 128.233 89.1088 133.587 91.8974 137.541C91.8974 137.733 91.8819 137.984 91.8632 138.313C91.7357 140.389 91.1855 145.988 90.1751 146.924C89.6144 147.446 88.9474 147.841 88.2196 148.083L83.4538 149.685C80.007 150.86 77.0212 153.091 74.9231 156.059L74.8392 156.176L74.7148 156.102C73.8144 155.561 72.8575 155.119 71.8609 154.785L67.9842 153.484C67.3822 153.286 66.8393 152.942 66.4049 152.483C65.7831 151.829 65.4443 146.224 65.3541 144.467L65.379 144.429C65.4505 144.321 65.5189 144.209 65.5842 144.098C67.524 140.891 68.7141 137.29 69.0661 133.563H65.9976C65.6867 137.055 64.1852 140.947 62.1986 143.574C62.1644 143.618 62.1333 143.661 62.0991 143.701C62.0183 143.807 61.9375 143.912 61.8535 144.011C61.5736 144.358 61.2714 144.686 60.9489 144.993C60.7336 145.2 60.5073 145.394 60.2711 145.576L60.2307 145.607C59.4734 146.295 58.4877 146.68 57.4629 146.688C56.438 146.696 55.4464 146.327 54.6783 145.65L54.582 145.576C54.4763 145.495 54.3737 145.412 54.2711 145.325C53.8107 144.926 53.3863 144.487 53.0027 144.014C52.9187 143.915 52.8348 143.813 52.7571 143.704L52.6638 143.58C50.6741 140.953 49.185 137.073 48.8617 133.569H45.7933C46.1469 137.296 47.3369 140.897 49.2752 144.104C49.3591 144.24 49.4461 144.374 49.5301 144.504C49.614 144.634 49.7042 144.761 49.7943 144.888C49.614 148.117 49.3094 151.891 48.8306 152.408C48.3848 152.899 47.8194 153.268 47.1891 153.477L43.3155 154.776C40.4627 155.735 37.9841 157.563 36.2293 160.001C34.4745 162.439 33.5321 165.365 33.5351 168.366V179.025C33.5278 179.649 33.7568 180.253 34.1763 180.716C34.5958 181.179 35.175 181.467 35.7983 181.523H35.9631C36.6043 181.522 37.219 181.268 37.6724 180.816C38.1259 180.364 38.3809 179.751 38.3818 179.112V168.376C38.3795 166.386 39.0039 164.446 40.1668 162.829C41.3297 161.211 42.9726 159.999 44.8637 159.362L48.7342 158.066C49.4123 157.836 50.0595 157.524 50.6617 157.137L50.7239 157.1L50.7923 157.121C52.3773 157.578 54.0202 157.804 55.67 157.794H55.9156L58.8131 157.763C60.5736 157.751 62.3224 157.478 64.0017 156.951C64.0347 156.937 64.0691 156.927 64.1043 156.92L64.1696 156.904L64.2256 156.942C64.9078 157.421 65.6567 157.798 66.4484 158.06L70.3189 159.359C71.1147 159.626 71.8715 159.997 72.5697 160.462L72.6692 160.527L72.6319 160.638C72.0852 162.334 71.8093 164.106 71.8143 165.887V179.035C71.807 179.659 72.036 180.262 72.4555 180.725C72.875 181.188 73.4542 181.476 74.0775 181.532H74.2423C74.884 181.532 75.4996 181.278 75.9537 180.826C76.4077 180.374 76.6633 179.761 76.6641 179.122V165.887C76.6622 163.323 77.468 160.822 78.9678 158.738C80.4676 156.654 82.5857 155.091 85.0238 154.271L89.7865 152.669C90.6681 152.378 91.5051 151.967 92.2736 151.448L92.3295 151.414H92.3917C92.4132 151.417 92.4341 151.423 92.4539 151.432C94.6342 152.079 96.8974 152.404 99.1721 152.399H99.483L101.706 152.374C104.14 152.356 106.557 151.964 108.872 151.212L108.974 151.178L109.049 151.153L109.111 151.2C109.971 151.837 110.927 152.335 111.943 152.675L116.709 154.277C116.959 154.36 117.22 154.403 117.483 154.404C118.058 154.404 118.615 154.201 119.053 153.83C119.492 153.459 119.784 152.945 119.877 152.379C119.971 151.814 119.859 151.234 119.563 150.742C119.267 150.251 118.805 149.88 118.26 149.697V149.691ZM60.8307 152.811C59.7396 153.044 58.6291 153.174 57.5136 153.202H57.1499C56.1982 153.201 55.2481 153.125 54.3084 152.975L54.125 152.944L54.1871 152.771C54.2555 152.582 54.3892 151.872 54.526 149.226H54.5509C55.4604 149.664 56.4577 149.889 57.4676 149.886C58.4774 149.883 59.4733 149.651 60.3799 149.208L60.4297 149.186C60.5074 149.149 60.582 149.108 60.6566 149.068C60.6566 149.111 60.6566 149.155 60.6566 149.198C60.7686 151.628 60.8774 152.387 60.952 152.607L61.0079 152.774L60.8307 152.811ZM105.648 147.113C104.047 147.509 102.407 147.73 100.758 147.77H100.319C98.8582 147.77 97.4006 147.629 95.9669 147.348L95.7741 147.311L95.855 147.131C96.0073 146.787 96.2405 145.78 96.4767 142.93L96.542 142C96.6322 142.053 96.7192 142.109 96.8094 142.158C98.031 142.842 99.4063 143.206 100.807 143.218C102.346 143.203 103.851 142.769 105.16 141.963L105.206 142.685C105.412 145.56 105.62 146.558 105.76 146.89L105.828 147.057L105.648 147.113Z" fill="black"/>
<path d="M100.176 54.0089C99.5167 54.0089 98.8841 53.7477 98.4177 53.2829C97.9512 52.818 97.6892 52.1875 97.6892 51.53V9.04493C97.6892 8.38749 97.9512 7.75697 98.4177 7.29209C98.8841 6.82721 99.5167 6.56604 100.176 6.56604C100.836 6.56604 101.468 6.82721 101.935 7.29209C102.401 7.75697 102.663 8.38749 102.663 9.04493V51.53C102.663 52.1875 102.401 52.818 101.935 53.2829C101.468 53.7477 100.836 54.0089 100.176 54.0089Z" fill="black"/>
<path d="M69.3054 128.651V126.647C69.3143 124.069 68.4634 121.562 66.8868 119.52C65.5439 117.782 63.7511 116.442 61.7012 115.643C61.5836 114.998 61.2418 114.415 60.7358 113.997C60.2298 113.578 59.592 113.35 58.9343 113.354H55.9343C55.2767 113.35 54.6389 113.578 54.1329 113.997C53.6269 114.415 53.2851 114.998 53.1674 115.643C51.1185 116.442 49.3268 117.782 47.985 119.52C46.4088 121.563 45.558 124.069 45.5663 126.647V128.651C45.0905 128.894 44.6943 129.267 44.4247 129.727C44.155 130.187 44.0232 130.715 44.0448 131.247C44.0663 131.779 44.2404 132.294 44.5464 132.731C44.8525 133.168 45.2776 133.508 45.7715 133.711C45.7715 133.727 46.7042 133.739 48.1902 133.746C52.6669 133.773 62.1986 133.773 66.6785 133.746C68.1676 133.746 69.1003 133.724 69.1003 133.708C69.5893 133.5 70.0091 133.158 70.311 132.722C70.6128 132.285 70.7845 131.773 70.8059 131.243C70.8274 130.713 70.6979 130.188 70.4323 129.729C70.1667 129.27 69.776 128.895 69.3054 128.648V128.651ZM48.1871 126.647C48.1871 126.551 48.1871 126.454 48.1871 126.358C48.184 126.325 48.184 126.292 48.1871 126.259C48.1871 126.145 48.2026 126.027 48.2119 125.912C48.2306 125.705 48.2555 125.5 48.2866 125.293C48.3073 125.154 48.3322 125.015 48.3612 124.874C48.3612 124.84 48.3767 124.803 48.3829 124.769C48.4016 124.682 48.4202 124.598 48.442 124.515L48.5073 124.264C48.529 124.177 48.5539 124.096 48.5788 124.013C48.9472 122.756 49.5835 121.593 50.4441 120.604V122.216C50.4441 123.195 52.3094 123.195 52.3094 122.216V118.987C52.7992 118.661 53.3198 118.384 53.8638 118.159V123.737C53.8638 125.147 55.7291 125.15 55.7291 123.737V117.747C55.7291 117.704 55.7291 117.664 55.7291 117.62V116.189C55.7291 116.164 55.7341 116.14 55.7436 116.117C55.7532 116.094 55.7672 116.074 55.7849 116.056C55.8025 116.039 55.8234 116.025 55.8464 116.016C55.8694 116.007 55.894 116.002 55.9188 116.003H58.9188C58.9436 116.002 58.9682 116.007 58.9911 116.016C59.0141 116.025 59.0351 116.039 59.0527 116.056C59.0704 116.074 59.0844 116.094 59.094 116.117C59.1035 116.14 59.1084 116.164 59.1084 116.189V117.62C59.1084 117.661 59.1084 117.701 59.1084 117.744V123.746C59.1084 125.156 60.9738 125.159 60.9738 123.746V118.169C61.5171 118.395 62.0376 118.672 62.5282 118.996V122.24C62.5282 123.22 64.3935 123.22 64.3935 122.24V120.623C65.5052 121.889 66.2443 123.436 66.5293 125.094C66.5541 125.246 66.579 125.404 66.5976 125.547C66.5976 125.649 66.6225 125.751 66.6287 125.856C66.635 125.962 66.6474 126.073 66.6536 126.182C66.6598 126.29 66.6536 126.492 66.6536 126.64V128.323H48.1871V126.647ZM67.0982 131.576H47.7612C47.6441 131.576 47.5318 131.53 47.449 131.448C47.3662 131.365 47.3197 131.253 47.3197 131.136C47.3197 131.02 47.3662 130.908 47.449 130.825C47.5318 130.743 47.6441 130.696 47.7612 130.696H67.0982C67.2153 130.696 67.3275 130.743 67.4103 130.825C67.4931 130.908 67.5396 131.02 67.5396 131.136C67.5396 131.253 67.4931 131.365 67.4103 131.448C67.3275 131.53 67.2153 131.576 67.0982 131.576Z" fill="#EFC94F"/>
<path d="M156.002 128.651V126.647C156.011 124.069 155.16 121.562 153.583 119.52C152.24 117.782 150.447 116.442 148.398 115.643C148.28 114.998 147.938 114.415 147.432 113.997C146.926 113.578 146.288 113.35 145.631 113.354H142.631C141.973 113.35 141.335 113.578 140.829 113.997C140.323 114.415 139.981 114.998 139.864 115.643C137.815 116.442 136.023 117.782 134.681 119.52C133.105 121.563 132.254 124.069 132.263 126.647V128.651C131.787 128.894 131.391 129.267 131.121 129.727C130.851 130.187 130.719 130.715 130.741 131.247C130.763 131.779 130.937 132.294 131.243 132.731C131.549 133.168 131.974 133.508 132.468 133.711C132.468 133.727 133.4 133.739 134.886 133.746C139.363 133.773 148.895 133.773 153.375 133.746C154.864 133.746 155.797 133.724 155.797 133.708C156.286 133.5 156.705 133.158 157.007 132.722C157.309 132.285 157.481 131.773 157.502 131.243C157.524 130.713 157.394 130.188 157.129 129.729C156.863 129.27 156.472 128.895 156.002 128.648V128.651ZM134.89 126.647C134.89 126.551 134.89 126.454 134.89 126.358C134.886 126.325 134.886 126.292 134.89 126.259C134.89 126.145 134.89 126.027 134.914 125.912C134.933 125.705 134.958 125.5 134.989 125.293C135.012 125.154 135.037 125.015 135.064 124.874C135.064 124.84 135.064 124.803 135.085 124.769C135.104 124.682 135.123 124.598 135.145 124.515L135.21 124.264C135.232 124.177 135.256 124.096 135.281 124.013C135.65 122.756 136.287 121.594 137.147 120.604V122.216C137.147 123.195 139.012 123.195 139.012 122.216V118.987C139.502 118.662 140.023 118.385 140.566 118.159V123.737C140.566 125.147 142.432 125.147 142.432 123.737V117.747C142.432 117.704 142.432 117.664 142.432 117.623V116.192C142.432 116.167 142.437 116.143 142.446 116.12C142.456 116.097 142.47 116.077 142.487 116.059C142.505 116.042 142.526 116.028 142.549 116.019C142.572 116.01 142.597 116.006 142.621 116.006H145.621C145.646 116.006 145.671 116.01 145.694 116.019C145.717 116.028 145.738 116.042 145.755 116.059C145.773 116.077 145.787 116.097 145.796 116.12C145.806 116.143 145.811 116.167 145.811 116.192V117.623C145.811 117.667 145.811 117.704 145.811 117.747V123.752C145.811 125.162 147.676 125.162 147.676 123.752V118.175C148.22 118.401 148.74 118.678 149.231 119.002V122.247C149.231 123.226 151.096 123.226 151.096 122.247V120.629C152.206 121.898 152.945 123.447 153.232 125.107C153.257 125.258 153.282 125.416 153.3 125.559C153.3 125.661 153.325 125.763 153.331 125.869C153.337 125.974 153.35 126.086 153.356 126.194C153.362 126.303 153.356 126.504 153.356 126.653V128.335H134.89V126.647ZM153.801 131.576H134.464C134.406 131.576 134.348 131.565 134.295 131.543C134.241 131.521 134.193 131.488 134.152 131.448C134.111 131.407 134.078 131.358 134.056 131.305C134.034 131.251 134.022 131.194 134.022 131.136C134.022 131.079 134.034 131.021 134.056 130.968C134.078 130.915 134.111 130.866 134.152 130.825C134.193 130.784 134.241 130.752 134.295 130.73C134.348 130.708 134.406 130.696 134.464 130.696H153.801C153.859 130.696 153.916 130.708 153.97 130.73C154.023 130.752 154.072 130.784 154.113 130.825C154.154 130.866 154.186 130.915 154.209 130.968C154.231 131.021 154.242 131.079 154.242 131.136C154.242 131.194 154.231 131.251 154.209 131.305C154.186 131.358 154.154 131.407 154.113 131.448C154.072 131.488 154.023 131.521 153.97 131.543C153.916 131.565 153.859 131.576 153.801 131.576Z" fill="#EFC94F"/>
<path d="M114.925 118.24V115.857C114.931 112.798 113.92 109.823 112.049 107.398C110.453 105.332 108.321 103.739 105.884 102.79C105.742 102.024 105.335 101.332 104.733 100.834C104.132 100.336 103.374 100.065 102.592 100.067H99.0291C98.2497 100.068 97.4953 100.341 96.8967 100.838C96.2982 101.336 95.8933 102.026 95.7524 102.79C93.316 103.739 91.1856 105.332 89.5907 107.398C87.72 109.823 86.7087 112.798 86.715 115.857V118.24C86.1551 118.533 85.6901 118.979 85.3739 119.525C85.0578 120.071 84.9035 120.695 84.9288 121.325C84.9542 121.955 85.1583 122.565 85.5173 123.084C85.8764 123.603 86.3758 124.01 86.9575 124.258C86.9575 124.276 88.0642 124.289 89.8332 124.298C95.1555 124.329 106.487 124.329 111.816 124.298C113.585 124.298 114.695 124.273 114.695 124.254C115.275 124.006 115.774 123.599 116.132 123.08C116.49 122.561 116.694 121.951 116.719 121.322C116.744 120.692 116.591 120.069 116.275 119.523C115.96 118.977 115.496 118.531 114.937 118.237L114.925 118.24ZM89.8238 115.857C89.8238 115.743 89.8238 115.628 89.8238 115.513C89.8207 115.474 89.8207 115.435 89.8238 115.395C89.8238 115.259 89.8425 115.12 89.8518 114.983C89.8736 114.739 89.9047 114.494 89.942 114.252C89.9668 114.085 89.9979 113.921 90.029 113.753L90.057 113.629C90.0788 113.524 90.1005 113.425 90.1254 113.319C90.1503 113.214 90.1782 113.118 90.2031 113.01C90.228 112.901 90.2591 112.811 90.2902 112.7C90.7346 111.213 91.4949 109.839 92.5192 108.672V110.621C92.5192 111.786 94.7358 111.786 94.7358 110.621V106.75C95.3167 106.366 95.9329 106.037 96.5762 105.768V112.396C96.5762 114.072 98.7929 114.075 98.7929 112.396V105.269C98.7929 105.217 98.7929 105.17 98.7929 105.12V103.419C98.7924 103.39 98.798 103.36 98.8093 103.333C98.8206 103.305 98.8374 103.28 98.8586 103.26C98.8798 103.239 98.905 103.222 98.9327 103.211C98.9604 103.201 98.99 103.195 99.0198 103.196H102.592C102.622 103.196 102.651 103.201 102.678 103.212C102.706 103.223 102.731 103.24 102.752 103.26C102.773 103.281 102.79 103.306 102.801 103.333C102.813 103.361 102.819 103.39 102.819 103.419V105.12H102.834C102.834 105.17 102.834 105.217 102.834 105.269V112.396C102.834 114.072 105.051 114.075 105.051 112.396V105.771C105.694 106.04 106.311 106.369 106.891 106.753V110.621C106.891 111.786 109.111 111.786 109.111 110.621V108.699C110.432 110.206 111.309 112.047 111.648 114.02C111.679 114.203 111.707 114.379 111.729 114.559C111.744 114.683 111.76 114.804 111.766 114.928C111.772 115.052 111.788 115.185 111.797 115.315C111.797 115.495 111.813 115.677 111.813 115.86V117.862H89.8332L89.8238 115.857ZM112.307 121.72H89.3202C89.1809 121.72 89.0472 121.665 88.9487 121.566C88.8502 121.468 88.7948 121.335 88.7948 121.196C88.7948 121.057 88.8502 120.924 88.9487 120.826C89.0472 120.728 89.1809 120.672 89.3202 120.672H112.307C112.446 120.672 112.58 120.728 112.679 120.826C112.777 120.924 112.832 121.057 112.832 121.196C112.832 121.335 112.777 121.468 112.679 121.566C112.58 121.665 112.446 121.72 112.307 121.72Z" fill="#EFC94F"/>
</svg>
