<svg width="194" height="200" viewBox="0 0 194 200" fill="none" xmlns="http://www.w3.org/2000/svg">
<path d="M95.6295 16.0912C78.3547 16.0912 62.2853 22.149 50.3897 33.1491C38.4941 44.1491 31.9158 59.0132 31.9158 74.9865C31.9158 90.6593 38.1347 111.405 48.1494 129.122C49.9466 132.302 52.283 135.629 54.7742 139.19C59.5554 146.007 64.978 153.753 66.2391 160.722L66.2608 160.849H72.4425L72.4178 160.672C71.2186 152.043 65.1267 143.357 59.7537 135.698L59.732 135.667C57.343 132.258 55.0841 129.045 53.4418 126.129C44.0592 109.524 37.9983 89.4477 37.9983 75.002C37.9983 46.3213 61.4518 23.6735 92.5804 22.2636V160.849H98.6661V19.134C98.6661 18.3281 98.3464 17.5551 97.7771 16.9846C97.2078 16.4141 96.4354 16.0928 95.6295 16.0912Z" fill="#EFC94F"/>
<path d="M48.4406 34.5372C47.0033 36.0013 45.6433 37.5393 44.366 39.1449L48.4406 34.5372Z" fill="#EFC94F"/>
<path d="M75.6372 81.8777C75.2613 84.5033 75.4062 87.1773 76.0638 89.7469C76.7214 92.3165 77.8786 94.7314 79.4695 96.8538C81.0604 98.9761 83.0538 100.764 85.3358 102.116C87.6178 103.468 90.1437 104.357 92.7694 104.733V110.571C86.4161 109.86 80.5476 106.833 76.2858 102.068C72.024 97.3025 69.6678 91.1338 69.6678 84.7408C69.6678 78.3479 72.024 72.1792 76.2858 67.414C80.5476 62.6488 86.4161 59.6215 92.7694 58.9108V64.761C88.4475 65.3794 84.4423 67.3814 81.3538 70.4672C78.2652 73.553 76.2595 77.5564 75.6372 81.8777Z" fill="black"/>
<path d="M92.7693 41.5214V48.958L92.289 51.2324C92.1709 51.7948 91.8874 52.3091 91.475 52.7094C91.0626 53.1097 90.5401 53.3776 89.9744 53.4789C88.2619 53.7938 86.5787 54.2509 84.9422 54.8454C84.4008 55.0395 83.8139 55.0677 83.2564 54.9263C82.6989 54.785 82.1962 54.4807 81.8126 54.0522L79.0951 51.0248C77.5939 51.7784 76.1446 52.6314 74.7571 53.5781L76.012 57.3925C76.19 57.9376 76.2017 58.5235 76.0456 59.0753C75.8894 59.6272 75.5724 60.12 75.1351 60.4911C73.8034 61.6285 72.5661 62.872 71.4354 64.2094C71.0627 64.6445 70.5696 64.9596 70.0183 65.1151C69.4669 65.2706 68.8818 65.2595 68.3367 65.0832L64.5038 63.8314C63.5588 65.22 62.7059 66.6692 61.9505 68.1694L64.981 70.8838C65.4096 71.2667 65.714 71.7688 65.8554 72.3258C65.9967 72.8829 65.9684 73.4695 65.7742 74.0103C65.1832 75.6494 64.7293 77.3346 64.417 79.0487C64.3134 79.6187 64.0408 80.1445 63.6347 80.5578C63.2286 80.9711 62.7077 81.2528 62.1395 81.3664L58.1113 82.1721V87.2848L62.1395 88.0935C62.708 88.2063 63.2294 88.4878 63.6356 88.9012C64.0419 89.3147 64.3142 89.8409 64.417 90.4113C64.7289 92.1234 65.1829 93.8066 65.7742 95.4434C65.9682 95.9846 65.9967 96.5712 65.8559 97.1286C65.7152 97.686 65.4117 98.1888 64.9841 98.573L61.9505 101.291C62.7035 102.792 63.5565 104.241 64.5038 105.629L68.3213 104.374C68.8663 104.197 69.4514 104.186 70.0028 104.342C70.5541 104.497 71.0472 104.812 71.4199 105.247C72.5477 106.58 73.7842 107.816 75.1165 108.944C75.554 109.315 75.8713 109.808 76.028 110.359C76.1848 110.911 76.1738 111.497 75.9965 112.043L74.7478 115.888C76.135 116.835 77.5843 117.688 79.0858 118.441L81.8002 115.411C82.073 115.106 82.4074 114.862 82.7813 114.696C83.1552 114.53 83.5601 114.445 83.9692 114.447C84.3018 114.449 84.6317 114.507 84.9453 114.618C86.5822 115.209 88.2654 115.663 89.9775 115.975C90.5436 116.077 91.0664 116.347 91.4787 116.748C91.8911 117.149 92.1743 117.664 92.2921 118.228L92.7724 120.499V127.936C92.0039 127.877 91.2231 127.808 90.3834 127.706C89.7845 127.633 89.2236 127.375 88.779 126.967C88.3345 126.559 88.0287 126.022 87.9045 125.432L87.0245 121.246C86.2994 121.074 85.5764 120.88 84.8555 120.663L81.9768 123.873C81.5739 124.322 81.0407 124.634 80.4518 124.765C79.8629 124.896 79.2477 124.84 78.6923 124.604C75.4573 123.211 72.4043 121.429 69.601 119.297C69.1196 118.934 68.7639 118.43 68.5838 117.854C68.4037 117.279 68.4084 116.662 68.597 116.09L69.9232 112.061C69.3748 111.547 68.8449 111.014 68.3306 110.472L64.3024 111.798C63.7297 111.984 63.1134 111.987 62.5388 111.807C61.9642 111.627 61.4598 111.273 61.0953 110.794C58.9599 107.991 57.1734 104.94 55.775 101.706C55.5393 101.15 55.4831 100.535 55.6142 99.9463C55.7453 99.3574 56.0572 98.8242 56.5062 98.4212L59.7195 95.5426C59.5129 94.8299 59.3198 94.1152 59.1401 93.3984L54.6471 92.4998C53.9922 92.3688 53.4029 92.0151 52.9792 91.4988C52.5556 90.9825 52.3237 90.3355 52.3231 89.6676V79.8171C52.323 79.1487 52.5545 78.501 52.9782 77.9841C53.402 77.4671 53.9917 77.113 54.6471 76.9819L59.1401 76.0864C59.3095 75.3675 59.5026 74.6517 59.7195 73.9391L56.5062 71.0604C56.0567 70.6585 55.7444 70.1259 55.6132 69.5373C55.482 68.9487 55.5386 68.3338 55.775 67.779C57.1694 64.5431 58.9529 61.4891 61.086 58.6846C61.4505 58.2054 61.9549 57.8513 62.5295 57.6715C63.1041 57.4916 63.7204 57.4948 64.2931 57.6806L68.3213 59.0068C68.8356 58.4615 69.3686 57.9285 69.9139 57.4141L68.5877 53.386C68.4 52.8134 68.3959 52.1966 68.5759 51.6216C68.7559 51.0466 69.111 50.5422 69.5917 50.1789C72.4026 48.0436 75.4627 46.2581 78.7047 44.8617C79.2592 44.6249 79.8739 44.5679 80.4624 44.6985C81.051 44.8291 81.5839 45.1408 81.9861 45.5898L84.8679 48.8031C85.5898 48.5831 86.3118 48.391 87.0369 48.2175L87.9169 44.0312C88.0413 43.4413 88.3472 42.905 88.7917 42.4977C89.2363 42.0903 89.7972 41.8324 90.3958 41.76C91.22 41.6577 92.0009 41.5864 92.7693 41.5214Z" fill="black"/>
<path d="M158.714 90.4796C158.115 88.7951 157.008 87.3377 155.547 86.3082C154.085 85.2787 152.34 84.7277 150.552 84.7311C148.764 84.7345 147.021 85.2921 145.564 86.3272C144.106 87.3622 143.005 88.8238 142.412 90.5106H124.546V78.9652H136.103C136.869 78.9652 137.604 78.6609 138.146 78.1193C138.687 77.5777 138.991 76.8432 138.991 76.0773V63.9927C140.921 63.311 142.548 61.9688 143.584 60.2036C144.621 58.4383 144.999 56.3635 144.653 54.346C144.308 52.3286 143.26 50.4983 141.695 49.1789C140.13 47.8594 138.149 47.1357 136.102 47.1357C134.055 47.1357 132.074 47.8594 130.509 49.1789C128.944 50.4983 127.896 52.3286 127.551 54.346C127.205 56.3635 127.583 58.4383 128.619 60.2036C129.656 61.9688 131.282 63.311 133.212 63.9927V73.1924H124.536V67.4073C124.537 67.0282 124.462 66.6528 124.318 66.3024C124.173 65.9521 123.96 65.6337 123.693 65.3655C123.425 65.0972 123.106 64.8845 122.756 64.7393C122.406 64.5941 122.031 64.5194 121.652 64.5194H115.888V49.5407C117.818 48.8594 119.446 47.5174 120.482 45.7521C121.519 43.9869 121.897 41.912 121.552 39.8944C121.206 37.8767 120.158 36.0463 118.593 34.7266C117.028 33.407 115.047 32.6832 113 32.6832C110.953 32.6832 108.972 33.407 107.407 34.7266C105.842 36.0463 104.794 37.8767 104.449 39.8944C104.103 41.912 104.482 43.9869 105.518 45.7521C106.555 47.5174 108.182 48.8594 110.112 49.5407V64.5194H98.6722V70.2952H118.77V99.1867H98.6722V104.966H104.324V113.642C104.33 114.404 104.637 115.133 105.178 115.67C105.719 116.207 106.45 116.508 107.212 116.508H115.888V119.916C113.958 120.598 112.331 121.94 111.295 123.706C110.259 125.471 109.88 127.546 110.226 129.563C110.572 131.581 111.62 133.411 113.185 134.73C114.75 136.05 116.731 136.773 118.778 136.773C120.824 136.773 122.805 136.05 124.37 134.73C125.935 133.411 126.983 131.581 127.329 129.563C127.675 127.546 127.296 125.471 126.26 123.706C125.224 121.94 123.597 120.598 121.667 119.916V113.632C121.667 112.866 121.363 112.131 120.821 111.589C120.28 111.047 119.545 110.742 118.779 110.741H110.103V104.966H121.658C122.424 104.966 123.158 104.661 123.7 104.12C124.241 103.578 124.546 102.844 124.546 102.078V96.2988H142.412C143.184 98.4606 144.783 100.227 146.857 101.21C148.931 102.193 151.311 102.312 153.473 101.54C155.635 100.768 157.401 99.1696 158.384 97.0954C159.367 95.0211 159.486 92.6414 158.714 90.4796ZM136.094 52.9523C136.666 52.9523 137.225 53.1219 137.7 53.4395C138.176 53.7572 138.546 54.2087 138.765 54.737C138.984 55.2652 139.041 55.8465 138.93 56.4073C138.818 56.9681 138.543 57.4832 138.138 57.8876C137.734 58.2919 137.219 58.5672 136.658 58.6788C136.097 58.7903 135.516 58.7331 134.988 58.5142C134.46 58.2954 134.008 57.9249 133.69 57.4495C133.373 56.974 133.203 56.4151 133.203 55.8433C133.204 55.4637 133.28 55.088 133.427 54.7377C133.573 54.3874 133.787 54.0694 134.057 53.8018C134.326 53.5342 134.645 53.3223 134.996 53.1781C135.348 53.0339 135.724 52.9604 136.103 52.9616L136.094 52.9523ZM112.982 44.2762C112.41 44.2762 111.852 44.1068 111.377 43.7895C110.902 43.4722 110.532 43.0211 110.314 42.4934C110.095 41.9657 110.038 41.3851 110.149 40.8249C110.261 40.2647 110.536 39.7501 110.94 39.3462C111.343 38.9423 111.858 38.6673 112.418 38.5559C112.978 38.4444 113.559 38.5016 114.087 38.7202C114.614 38.9388 115.066 39.3089 115.383 39.7838C115.7 40.2588 115.87 40.8171 115.87 41.3883C115.874 41.7696 115.803 42.148 115.66 42.5017C115.518 42.8555 115.307 43.1774 115.039 43.4491C114.771 43.7208 114.453 43.9367 114.101 44.0845C113.75 44.2323 113.372 44.3091 112.991 44.3103L112.982 44.2762ZM118.77 125.184C119.342 125.184 119.901 125.354 120.376 125.672C120.852 125.989 121.222 126.441 121.441 126.969C121.66 127.498 121.717 128.079 121.605 128.64C121.493 129.201 121.218 129.716 120.813 130.12C120.408 130.525 119.893 130.8 119.332 130.911C118.771 131.022 118.19 130.964 117.661 130.745C117.133 130.526 116.682 130.155 116.365 129.679C116.047 129.203 115.878 128.644 115.879 128.072C115.879 127.692 115.954 127.317 116.099 126.966C116.244 126.616 116.457 126.297 116.726 126.029C116.994 125.761 117.313 125.548 117.664 125.403C118.014 125.258 118.39 125.184 118.77 125.184ZM150.549 96.2957C149.977 96.2963 149.418 96.1273 148.942 95.81C148.466 95.4927 148.095 95.0414 147.876 94.5132C147.657 93.985 147.599 93.4036 147.71 92.8426C147.821 92.2816 148.097 91.7662 148.501 91.3615C148.905 90.9569 149.42 90.6813 149.981 90.5695C150.542 90.4577 151.123 90.5147 151.652 90.7335C152.18 90.9522 152.632 91.3227 152.95 91.7982C153.267 92.2737 153.437 92.8328 153.437 93.4047C153.438 93.7843 153.363 94.1604 153.218 94.5113C153.073 94.8622 152.861 95.1811 152.593 95.4498C152.324 95.7186 152.006 95.9319 151.655 96.0776C151.305 96.2232 150.929 96.2984 150.549 96.2988V96.2957Z" fill="black"/>
<path d="M107.215 22.3287C108.81 22.3287 110.103 21.0357 110.103 19.4408C110.103 17.8458 108.81 16.5529 107.215 16.5529C105.62 16.5529 104.327 17.8458 104.327 19.4408C104.327 21.0357 105.62 22.3287 107.215 22.3287Z" fill="black"/>
<path d="M118.788 25.356C120.383 25.356 121.676 24.0631 121.676 22.4681C121.676 20.8732 120.383 19.5802 118.788 19.5802C117.193 19.5802 115.901 20.8732 115.901 22.4681C115.901 24.0631 117.193 25.356 118.788 25.356Z" fill="#EFC94F"/>
<path d="M129.364 30.416C130.959 30.416 132.252 29.123 132.252 27.528C132.252 25.9331 130.959 24.6401 129.364 24.6401C127.769 24.6401 126.476 25.9331 126.476 27.528C126.476 29.123 127.769 30.416 129.364 30.416Z" fill="black"/>
<path d="M146.512 46.1942C148.107 46.1942 149.4 44.9012 149.4 43.3062C149.4 41.7113 148.107 40.4183 146.512 40.4183C144.917 40.4183 143.624 41.7113 143.624 43.3062C143.624 44.9012 144.917 46.1942 146.512 46.1942Z" fill="black"/>
<path d="M155.467 67.6583C157.062 67.6583 158.355 66.3653 158.355 64.7704C158.355 63.1754 157.062 61.8824 155.467 61.8824C153.872 61.8824 152.579 63.1754 152.579 64.7704C152.579 66.3653 153.872 67.6583 155.467 67.6583Z" fill="black"/>
<path d="M143.32 124.527C144.915 124.527 146.208 123.234 146.208 121.639C146.208 120.044 144.915 118.751 143.32 118.751C141.725 118.751 140.432 120.044 140.432 121.639C140.432 123.234 141.725 124.527 143.32 124.527Z" fill="black"/>
<path d="M130.712 144.327C132.307 144.327 133.6 143.034 133.6 141.439C133.6 139.844 132.307 138.551 130.712 138.551C129.117 138.551 127.824 139.844 127.824 141.439C127.824 143.034 129.117 144.327 130.712 144.327Z" fill="black"/>
<path d="M138.759 37.4251C140.354 37.4251 141.647 36.1321 141.647 34.5372C141.647 32.9423 140.354 31.6493 138.759 31.6493C137.164 31.6493 135.871 32.9423 135.871 34.5372C135.871 36.1321 137.164 37.4251 138.759 37.4251Z" fill="#EFC94F"/>
<path d="M152.114 56.4165C153.709 56.4165 155.002 55.1235 155.002 53.5285C155.002 51.9336 153.709 50.6406 152.114 50.6406C150.519 50.6406 149.226 51.9336 149.226 53.5285C149.226 55.1235 150.519 56.4165 152.114 56.4165Z" fill="#EFC94F"/>
<path d="M156.213 79.6312C157.808 79.6312 159.101 78.3382 159.101 76.7433C159.101 75.1483 157.808 73.8553 156.213 73.8553C154.619 73.8553 153.326 75.1483 153.326 76.7433C153.326 78.3382 154.619 79.6312 156.213 79.6312Z" fill="#EFC94F"/>
<path d="M148.157 113.797C149.752 113.797 151.045 112.504 151.045 110.909C151.045 109.314 149.752 108.021 148.157 108.021C146.562 108.021 145.269 109.314 145.269 110.909C145.269 112.504 146.562 113.797 148.157 113.797Z" fill="#EFC94F"/>
<path d="M137.436 134.706C139.031 134.706 140.324 133.413 140.324 131.818C140.324 130.223 139.031 128.93 137.436 128.93C135.841 128.93 134.548 130.223 134.548 131.818C134.548 133.413 135.841 134.706 137.436 134.706Z" fill="#EFC94F"/>
<path d="M124.697 154.336C126.292 154.336 127.585 153.043 127.585 151.448C127.585 149.853 126.292 148.56 124.697 148.56C123.103 148.56 121.81 149.853 121.81 151.448C121.81 153.043 123.103 154.336 124.697 154.336Z" fill="#EFC94F"/>
<path d="M129.33 167.368C129.328 165.247 128.484 163.212 126.983 161.712C125.483 160.211 123.448 159.367 121.326 159.365H69.8088C68.2752 159.362 66.7732 159.8 65.4817 160.627C64.1902 161.455 63.1638 162.635 62.5247 164.03C61.8857 165.424 61.6609 166.972 61.8772 168.49C62.0935 170.009 62.7418 171.433 63.7448 172.593C62.7437 173.753 62.0971 175.176 61.8819 176.694C61.6666 178.211 61.8918 179.758 62.5307 181.151C63.1695 182.544 64.1951 183.724 65.4854 184.551C66.7757 185.378 68.2763 185.816 69.8088 185.815H121.326C122.858 185.815 124.358 185.375 125.647 184.548C126.937 183.721 127.962 182.542 128.6 181.149C129.239 179.757 129.464 178.21 129.25 176.694C129.035 175.177 128.39 173.753 127.39 172.593C128.644 171.141 129.333 169.287 129.33 167.368ZM69.8088 164.942H121.326C121.955 164.965 122.551 165.23 122.988 165.683C123.425 166.136 123.669 166.741 123.669 167.37C123.669 167.999 123.425 168.604 122.988 169.057C122.551 169.51 121.955 169.775 121.326 169.798H69.8088C69.4826 169.809 69.1575 169.755 68.8528 169.639C68.5481 169.522 68.27 169.345 68.0352 169.118C67.8003 168.892 67.6136 168.62 67.486 168.32C67.3584 168.019 67.2927 167.696 67.2927 167.37C67.2927 167.044 67.3584 166.721 67.486 166.42C67.6136 166.12 67.8003 165.848 68.0352 165.622C68.27 165.395 68.5481 165.218 68.8528 165.102C69.1575 164.985 69.4826 164.931 69.8088 164.942ZM121.326 180.231H69.8088C69.4826 180.242 69.1575 180.188 68.8528 180.072C68.5481 179.955 68.27 179.778 68.0352 179.551C67.8003 179.325 67.6136 179.053 67.486 178.753C67.3584 178.452 67.2927 178.129 67.2927 177.803C67.2927 177.477 67.3584 177.154 67.486 176.853C67.6136 176.553 67.8003 176.281 68.0352 176.055C68.27 175.828 68.5481 175.651 68.8528 175.535C69.1575 175.418 69.4826 175.364 69.8088 175.375H121.326C121.955 175.398 122.551 175.663 122.988 176.116C123.425 176.569 123.669 177.174 123.669 177.803C123.669 178.432 123.425 179.037 122.988 179.49C122.551 179.943 121.955 180.208 121.326 180.231Z" fill="black"/>
</svg>
