<svg width="194" height="200" viewBox="0 0 194 200" fill="none" xmlns="http://www.w3.org/2000/svg">
<path d="M129.494 46.8573C128.987 46.3505 128.32 46.0351 127.607 45.965C126.893 45.8948 126.178 46.0742 125.582 46.4726C124.986 46.871 124.546 47.4637 124.338 48.1497C124.13 48.8358 124.166 49.5727 124.441 50.235C124.715 50.8973 125.211 51.4439 125.843 51.7817C126.476 52.1195 127.205 52.2276 127.909 52.0876C128.612 51.9477 129.244 51.5682 129.699 51.0139C130.154 50.4597 130.402 49.7649 130.402 49.048C130.399 48.2268 130.073 47.4398 129.494 46.8573Z" fill="black"/>
<path d="M56.872 86.7271H37.8465C37.2159 86.7279 36.6114 86.9789 36.1658 87.4251C35.7201 87.8713 35.4698 88.4762 35.4698 89.1068V108.142C35.4698 108.772 35.7201 109.377 36.1658 109.823C36.6114 110.269 37.2159 110.52 37.8465 110.521H56.872C57.5026 110.52 58.1071 110.269 58.5527 109.823C58.9983 109.377 59.2486 108.772 59.2486 108.142V89.1068C59.2486 88.4762 58.9983 87.8713 58.5527 87.4251C58.1071 86.9789 57.5026 86.7279 56.872 86.7271ZM54.4922 105.753H40.2386V91.4834H54.4922V105.753Z" fill="#EFC94F"/>
<path d="M88.2609 79.1045H71.8382C71.0164 79.1045 70.2283 79.431 69.6472 80.0121C69.0661 80.5932 68.7396 81.3813 68.7396 82.2031V114.977C68.7396 115.306 74.9368 110.311 74.9368 110.311V85.3017H88.2609C89.0827 85.3017 89.8708 84.9753 90.4519 84.3942C91.033 83.813 91.3595 83.0249 91.3595 82.2031C91.3595 81.3813 91.033 80.5932 90.4519 80.0121C89.8708 79.431 89.0827 79.1045 88.2609 79.1045Z" fill="black"/>
<path d="M113.629 55.5675C113.048 56.1484 112.26 56.4747 111.439 56.4747C110.617 56.4747 109.829 56.1484 109.248 55.5675L84.242 30.5617C84.242 30.5617 84.2266 30.5617 84.2235 30.5617L38.7606 76.0245C38.1769 76.6077 37.3856 76.9353 36.5606 76.9355H25.6844V155.315V155.33H63.974C64.7843 155.319 65.5683 155.618 66.1648 156.167C66.7612 156.716 67.1249 157.472 67.1811 158.28C67.2172 159.031 66.9795 159.769 66.5121 160.357C66.0447 160.945 65.3794 161.344 64.6402 161.478C64.4571 161.51 64.2715 161.527 64.0856 161.528H22.5858C21.7653 161.524 20.9795 161.196 20.3993 160.616C19.819 160.035 19.4913 159.25 19.4872 158.429V76.9479H19.4717H16.3731C15.7603 76.9478 15.1614 76.766 14.6519 76.4255C14.1425 76.085 13.7455 75.6011 13.511 75.035C13.2765 74.4689 13.2151 73.846 13.3347 73.245C13.4542 72.644 13.7492 72.0919 14.1824 71.6586L82.042 3.79896C82.6231 3.21806 83.4111 2.89172 84.2327 2.89172C85.0544 2.89172 85.8424 3.21806 86.4235 3.79896L121.748 39.1231C122.044 39.409 122.28 39.7509 122.442 40.1289C122.604 40.507 122.69 40.9136 122.694 41.325C122.697 41.7365 122.619 42.1445 122.463 42.5253C122.307 42.9061 122.077 43.2521 121.786 43.543C121.495 43.8339 121.149 44.064 120.768 44.2198C120.388 44.3756 119.98 44.454 119.568 44.4504C119.157 44.4469 118.75 44.3614 118.372 44.199C117.994 44.0366 117.652 43.8005 117.366 43.5046L84.242 10.368C84.242 10.368 84.2266 10.368 84.2235 10.368L23.8779 70.7135V70.7383H35.2746L82.042 23.9802C82.5194 23.4985 83.1417 23.1867 83.8134 23.0926C84.4851 22.9986 85.169 23.1275 85.7604 23.4597C86.0152 23.6043 86.2479 23.7849 86.4514 23.9957L113.642 51.1861C114.221 51.7688 114.545 52.5577 114.543 53.3793C114.54 54.201 114.212 54.9881 113.629 55.5675Z" fill="black"/>
<path d="M84.2327 49.6676C81.9039 49.6676 79.6274 50.3582 77.691 51.652C75.7547 52.9458 74.2455 54.7848 73.3543 56.9363C72.4631 59.0879 72.2299 61.4554 72.6843 63.7395C73.1386 66.0235 74.26 68.1216 75.9067 69.7683C77.5535 71.415 79.6515 72.5365 81.9356 72.9908C84.2197 73.4451 86.5872 73.212 88.7387 72.3208C90.8903 71.4296 92.7292 69.9204 94.0231 67.984C95.3169 66.0477 96.0075 63.7712 96.0075 61.4423C96.0075 58.3195 94.7669 55.3245 92.5587 53.1163C90.3505 50.9082 87.3556 49.6676 84.2327 49.6676ZM84.2327 67.0198C83.1296 67.0198 82.0513 66.6927 81.134 66.0799C80.2168 65.467 79.5019 64.5959 79.0798 63.5767C78.6577 62.5576 78.5472 61.4361 78.7624 60.3542C78.9776 59.2723 79.5088 58.2785 80.2889 57.4984C81.0689 56.7184 82.0627 56.1872 83.1446 55.972C84.2265 55.7568 85.348 55.8672 86.3672 56.2894C87.3863 56.7115 88.2574 57.4264 88.8703 58.3436C89.4831 59.2609 89.8102 60.3392 89.8102 61.4423C89.8102 62.9216 89.2226 64.3402 88.1766 65.3862C87.1306 66.4322 85.712 67.0198 84.2327 67.0198Z" fill="#EFC94F"/>
<path d="M144.581 52.4564C144.163 52.0401 143.633 51.7522 143.057 51.6265C142.48 51.5007 141.879 51.5425 141.325 51.7468L120.167 59.4934C119.977 59.5618 119.795 59.649 119.622 59.7536L52.9584 126.423C50.9892 128.947 50.0557 132.126 50.348 135.314C50.6404 138.502 52.1365 141.458 54.5319 143.581C56.9273 145.705 60.0419 146.835 63.2416 146.743C66.4413 146.651 69.4855 145.342 71.7546 143.085L97.8852 116.942C98.4496 116.357 98.762 115.575 98.7549 114.762C98.7478 113.95 98.422 113.172 97.8475 112.598C97.2729 112.023 96.4958 111.698 95.6833 111.691C94.8709 111.683 94.0882 111.996 93.5038 112.56L73.7067 132.357L64.6805 123.325L121.292 66.71L130.321 75.7363L108.687 97.3708C108.399 97.6585 108.17 98.0001 108.014 98.3762C107.858 98.7522 107.778 99.1553 107.777 99.5625C107.777 99.9696 107.857 100.373 108.013 100.749C108.168 101.125 108.396 101.467 108.684 101.755C108.972 102.043 109.313 102.272 109.689 102.428C110.065 102.584 110.468 102.665 110.875 102.665C111.283 102.665 111.686 102.585 112.062 102.43C112.438 102.274 112.78 102.046 113.068 101.758L136.832 77.9952C137.151 77.6778 137.397 77.2937 137.551 76.8704L145.297 55.7131C145.501 55.1585 145.541 54.5572 145.415 53.9802C145.288 53.4033 144.999 52.8745 144.581 52.4564ZM69.3253 136.739L67.3731 138.691C66.7835 139.297 66.0793 139.78 65.3014 140.112C64.5234 140.444 63.6874 140.617 62.8417 140.623C61.996 140.629 61.1576 140.467 60.3752 140.146C59.5927 139.825 58.8819 139.352 58.2839 138.754C57.6859 138.156 57.2127 137.445 56.8918 136.663C56.5708 135.88 56.4086 135.042 56.4145 134.196C56.4203 133.35 56.5942 132.514 56.9259 131.736C57.2576 130.958 57.7407 130.254 58.3469 129.665L60.299 127.712L69.3253 136.739ZM133.432 70.0906L126.944 63.6021L137.169 59.8528L133.432 70.0906Z" fill="#EFC94F"/>
<path d="M105.424 105.021C104.917 104.514 104.25 104.199 103.537 104.129C102.823 104.059 102.107 104.238 101.511 104.637C100.915 105.035 100.476 105.628 100.268 106.314C100.06 107 100.096 107.737 100.371 108.399C100.645 109.061 101.141 109.608 101.773 109.946C102.406 110.283 103.135 110.392 103.838 110.252C104.542 110.112 105.174 109.732 105.629 109.178C106.084 108.624 106.332 107.929 106.332 107.212C106.329 106.391 106.003 105.604 105.424 105.021Z" fill="black"/>
<path d="M102.291 152.616L115.631 139.292C116.113 138.81 116.384 138.156 116.384 137.475C116.384 136.793 116.113 136.139 115.631 135.657C115.149 135.175 114.495 134.905 113.814 134.905C113.132 134.905 112.478 135.175 111.996 135.657L98.6536 148.981C98.1894 149.467 97.9339 150.116 97.9417 150.788C97.9496 151.46 98.2202 152.102 98.6956 152.577C99.171 153.052 99.8135 153.322 100.486 153.329C101.158 153.337 101.806 153.081 102.291 152.616Z" fill="#EFC94F"/>
<path d="M97.5257 157.379C99.8652 155.039 96.2336 151.401 93.8911 153.744C91.5485 156.087 95.1832 159.721 97.5257 157.379Z" fill="#EFC94F"/>
<path d="M182.976 176.429L153.775 147.224C153.305 146.756 152.669 146.492 152.006 146.492C151.342 146.492 150.706 146.756 150.236 147.224L146.177 151.281C145.281 150.024 144.859 148.491 144.986 146.953C145.114 145.415 145.783 143.972 146.874 142.88L176.869 112.886C179.078 110.671 180.318 107.671 180.318 104.543C180.318 101.415 179.078 98.4144 176.869 96.1996L169.971 89.3052C167.778 87.1088 164.806 85.8662 161.702 85.8471C158.598 85.8279 155.611 87.0338 153.391 89.203L145.114 80.9266C144.876 80.687 144.593 80.4969 144.281 80.3672C143.969 80.2374 143.635 80.1707 143.297 80.1707C142.959 80.1707 142.625 80.2374 142.313 80.3672C142.001 80.4969 141.718 80.687 141.48 80.9266L74.2769 148.132C73.7961 148.615 73.5261 149.268 73.5261 149.95C73.5261 150.631 73.7961 151.284 74.2769 151.767L94.483 171.973C94.9652 172.455 95.6188 172.725 96.3003 172.725C96.9818 172.725 97.6354 172.455 98.1176 171.973L165.323 104.764C165.804 104.282 166.074 103.628 166.074 102.947C166.074 102.266 165.804 101.612 165.323 101.13L157.121 92.9306C158.352 91.7458 159.998 91.0922 161.706 91.1108C163.414 91.1293 165.046 91.8186 166.25 93.0297L173.147 99.9242C174.369 101.151 175.055 102.811 175.055 104.543C175.055 106.274 174.369 107.935 173.147 109.161L143.156 139.156C141.076 141.236 139.848 144.018 139.713 146.956C139.578 149.894 140.545 152.777 142.425 155.039L138.087 159.362C137.618 159.831 137.354 160.468 137.354 161.131C137.354 161.795 137.618 162.431 138.087 162.9L167.3 192.114C168.33 193.143 169.552 193.96 170.896 194.517C172.241 195.074 173.683 195.361 175.138 195.361C176.594 195.361 178.035 195.074 179.38 194.517C180.725 193.96 181.947 193.143 182.976 192.114C184.006 191.085 184.822 189.863 185.379 188.518C185.936 187.173 186.223 185.732 186.223 184.276C186.223 182.821 185.936 181.379 185.379 180.034C184.822 178.689 184.006 177.467 182.976 176.438V176.429ZM96.2987 166.513L79.7304 149.945L143.302 86.377L159.867 102.948L96.2987 166.513ZM143.776 161.202L152.061 152.917L157.125 157.983L148.842 166.265L143.776 161.202ZM152.539 169.962L160.821 161.676L165.89 166.746L157.605 175.028L152.539 169.962ZM166.396 183.791L161.314 178.725L169.596 170.442L174.663 175.506L166.396 183.791ZM179.298 188.411C178.199 189.509 176.709 190.126 175.155 190.126C173.602 190.126 172.112 189.509 171.012 188.411L170.083 187.482L178.369 179.196L179.298 180.126C180.393 181.227 181.007 182.718 181.004 184.272C181.001 185.825 180.382 187.314 179.283 188.411H179.298Z" fill="black"/>
</svg>
