<svg width="195" height="200" viewBox="0 0 195 200" fill="none" xmlns="http://www.w3.org/2000/svg">
<path d="M172.516 172.432H169.771V109.031C169.771 108.224 169.449 107.449 168.877 106.878C168.305 106.307 167.528 105.986 166.718 105.985H152.38V80.1396C152.379 79.5587 152.211 78.9903 151.897 78.5008C151.583 78.0113 151.136 77.621 150.608 77.3756L114.716 60.86V45.4723C114.715 44.6658 114.393 43.8928 113.82 43.3225C113.248 42.7522 112.473 42.4311 111.664 42.4294H53.6774C52.868 42.4303 52.092 42.7511 51.5196 43.3216C50.9473 43.892 50.6254 44.6655 50.6245 45.4723V172.432H33.5445V169.569C36.4915 169.061 39.2584 167.808 41.5805 165.929C43.9025 164.05 45.7019 161.609 46.8066 158.839C47.9112 156.069 48.2841 153.063 47.8895 150.108C47.4949 147.153 46.3461 144.349 44.553 141.963C45.2533 139.562 45.3193 137.022 44.7447 134.588C44.17 132.154 42.9742 129.91 41.2731 128.072C41.9127 126.623 42.242 125.057 42.24 123.474C42.1898 120.401 40.9298 117.47 38.7318 115.315C36.5337 113.159 33.5737 111.951 30.4901 111.951C27.4065 111.951 24.4465 113.159 22.2484 115.315C20.0504 117.47 18.7904 120.401 18.7402 123.474C18.737 125.061 19.0664 126.631 19.7071 128.084C18.006 129.921 16.8101 132.164 16.2354 134.597C15.6608 137.03 15.7268 139.569 16.4272 141.969C14.6365 144.355 13.4897 147.159 13.0964 150.113C12.7031 153.066 13.0765 156.071 14.1809 158.84C15.2853 161.609 17.0837 164.049 19.4044 165.927C21.725 167.806 24.4902 169.059 27.4357 169.569V172.432H10.2002C9.40701 172.457 8.65475 172.789 8.10259 173.357C7.55044 173.925 7.2417 174.685 7.2417 175.476C7.2417 176.267 7.55044 177.027 8.10259 177.595C8.65475 178.163 9.40701 178.495 10.2002 178.521H172.516C173.309 178.495 174.062 178.163 174.614 177.595C175.166 177.027 175.475 176.267 175.475 175.476C175.475 174.685 175.166 173.925 174.614 173.357C174.062 172.789 173.309 172.457 172.516 172.432ZM22.132 144.643C22.5388 144.208 22.8089 143.664 22.9089 143.077C23.0089 142.491 22.9344 141.888 22.6947 141.343C21.9102 139.585 21.7525 137.612 22.2479 135.752C22.7432 133.892 23.8618 132.257 25.418 131.118C25.7398 130.879 26.0111 130.579 26.2165 130.235C26.4219 129.891 26.5574 129.51 26.6151 129.114C26.6729 128.719 26.6518 128.315 26.5531 127.927C26.4543 127.539 26.2799 127.175 26.0398 126.854C25.3938 126.023 24.9944 125.028 24.8869 123.982C24.7793 122.936 24.968 121.881 25.4314 120.936C25.8949 119.992 26.6146 119.196 27.5089 118.638C28.4032 118.08 29.4364 117.784 30.4913 117.781C31.5463 117.779 32.5807 118.072 33.4774 118.626C34.374 119.179 35.097 119.973 35.5644 120.915C36.0318 121.858 36.2249 122.912 36.1217 123.959C36.0186 125.005 35.6233 126.002 34.9808 126.836C34.4967 127.483 34.2902 128.296 34.4068 129.096C34.5234 129.895 34.9534 130.616 35.6026 131.099C37.1588 132.238 38.2774 133.874 38.7728 135.734C39.2681 137.594 39.1105 139.566 38.3259 141.325C38.0826 141.867 38.0035 142.468 38.0985 143.054C38.1935 143.641 38.4585 144.187 38.8607 144.625C40.205 146.049 41.156 147.796 41.6208 149.695C42.0857 151.595 42.0486 153.582 41.5131 155.463C40.9775 157.344 39.9619 159.054 38.5653 160.427C37.1687 161.8 35.4389 162.789 33.5445 163.297V155.241C33.5192 154.45 33.1863 153.7 32.6163 153.15C32.0462 152.6 31.2837 152.292 30.4901 152.292C29.6965 152.292 28.934 152.6 28.3639 153.15C27.7939 153.7 27.461 154.45 27.4357 155.241V163.297C25.5453 162.787 23.8197 161.797 22.4268 160.425C21.0339 159.053 20.0211 157.344 19.4871 155.466C18.9532 153.588 18.9161 151.604 19.3796 149.708C19.8431 147.811 20.7913 146.066 22.132 144.643ZM108.592 48.5182V172.432H56.7303V48.5182H108.592ZM152.069 143.853V172.432H126.294V143.853H152.069ZM155.131 137.764H123.241C122.431 137.764 121.655 138.085 121.082 138.656C120.51 139.226 120.188 140 120.188 140.807V172.432H114.716V112.074H163.681V172.432H158.178V140.807C158.177 140.002 157.856 139.229 157.285 138.659C156.714 138.088 155.94 137.767 155.131 137.764ZM114.716 105.973V67.5499L146.29 82.0731V105.973H114.716Z" fill="black"/>
<path d="M184.109 172.593H181.211C180.443 172.593 179.706 172.897 179.163 173.439C178.619 173.98 178.314 174.715 178.314 175.481C178.314 176.247 178.619 176.981 179.163 177.523C179.706 178.064 180.443 178.369 181.211 178.369H184.109C184.877 178.369 185.614 178.064 186.158 177.523C186.701 176.981 187.006 176.247 187.006 175.481C187.006 174.715 186.701 173.98 186.158 173.439C185.614 172.897 184.877 172.593 184.109 172.593Z" fill="black"/>
<path d="M97.1546 54.1389H68.1708C67.4015 54.1389 66.6638 54.4435 66.1198 54.9857C65.5759 55.5278 65.2703 56.2632 65.2703 57.0299V97.473C65.2703 98.2398 65.5759 98.9751 66.1198 99.5173C66.6638 100.059 67.4015 100.364 68.1708 100.364H97.1546C97.9233 100.363 98.6603 100.058 99.2035 99.5162C99.7468 98.9741 100.052 98.2392 100.052 97.473V57.0299C100.052 56.2637 99.7468 55.5288 99.2035 54.9868C98.6603 54.4447 97.9233 54.1397 97.1546 54.1389ZM71.0683 94.5851V59.9178H79.773V94.5851H71.0683ZM94.2571 94.5851H85.5524V59.9178H94.2571V94.5851Z" fill="#EFC94F"/>
<path d="M97.1546 106.14H68.1708C67.4015 106.14 66.6638 106.444 66.1198 106.987C65.5759 107.529 65.2703 108.264 65.2703 109.031V149.474C65.2703 150.241 65.5759 150.976 66.1198 151.518C66.6638 152.06 67.4015 152.365 68.1708 152.365H97.1546C97.9233 152.364 98.6603 152.059 99.2035 151.517C99.7468 150.975 100.052 150.24 100.052 149.474V109.031C100.052 108.265 99.7468 107.53 99.2035 106.988C98.6603 106.446 97.9233 106.141 97.1546 106.14ZM71.0683 146.586V111.919H79.773V146.586H71.0683ZM94.2571 146.586H85.5524V111.919H94.2571V146.586Z" fill="#EFC94F"/>
<path d="M155.131 117.698H123.241C122.472 117.698 121.735 118.002 121.192 118.544C120.649 119.085 120.343 119.82 120.343 120.586V132.14C120.343 132.907 120.649 133.641 121.192 134.184C121.735 134.726 122.472 135.031 123.241 135.031H155.131C155.9 135.031 156.637 134.726 157.18 134.184C157.724 133.641 158.029 132.907 158.029 132.14V120.586C158.029 120.206 157.954 119.831 157.808 119.481C157.663 119.13 157.449 118.812 157.18 118.544C156.911 118.275 156.592 118.063 156.24 117.918C155.889 117.772 155.512 117.698 155.131 117.698ZM152.231 129.252H126.138V123.474H152.225L152.231 129.252Z" fill="#EFC94F"/>
<path d="M166.367 39.7551C165.806 37.518 164.585 35.4998 162.862 33.9612C161.139 32.4226 158.992 31.4344 156.7 31.1241C154.408 30.8139 152.074 31.1959 150.002 32.2207C147.93 33.2456 146.213 34.8663 145.074 36.8734C142.111 37.1864 139.382 38.6248 137.455 40.89C135.527 43.1553 134.549 46.0733 134.723 49.0385C134.897 52.0036 136.21 54.7881 138.389 56.8139C140.568 58.8397 143.447 59.9513 146.427 59.9178H166.715C167.228 59.9177 167.73 59.7727 168.164 59.4995C170.407 58.832 172.35 57.4117 173.663 55.4794C174.976 53.5472 175.578 51.2218 175.367 48.8976C175.157 46.5733 174.146 44.3933 172.507 42.727C170.867 41.0607 168.7 40.0107 166.373 39.7551H166.367ZM166.137 54.0521C166.028 54.0769 165.919 54.1048 165.826 54.1389H146.427C144.91 54.1199 143.462 53.5097 142.392 52.4391C141.322 51.3686 140.715 49.9227 140.702 48.4115C140.688 46.9004 141.269 45.444 142.32 44.3547C143.371 43.2655 144.808 42.6298 146.324 42.5841L146.75 42.6306C147.384 42.6789 148.017 42.5149 148.547 42.1647C149.077 41.8146 149.476 41.2981 149.678 40.6971C150.119 39.4167 150.999 38.3322 152.163 37.6341C153.326 36.936 154.7 36.6689 156.041 36.8797C157.383 37.0906 158.607 37.7659 159.499 38.787C160.39 39.8081 160.892 41.1098 160.917 42.4633C160.917 42.5593 160.917 42.6554 160.917 42.7329C160.916 43.1122 160.991 43.4879 161.137 43.8385C161.282 44.1891 161.495 44.5076 161.765 44.7758C162.034 45.0441 162.353 45.2568 162.705 45.4018C163.057 45.5468 163.434 45.6212 163.814 45.6208C164.009 45.6212 164.202 45.6015 164.393 45.5619C164.965 45.4567 165.553 45.4651 166.122 45.5865C166.692 45.7079 167.232 45.94 167.711 46.2696C168.19 46.5991 168.6 47.0195 168.916 47.5069C169.232 47.9942 169.448 48.5389 169.553 49.1098C169.597 49.3397 169.621 49.573 169.625 49.807C169.623 50.8069 169.275 51.7755 168.64 52.549C168.004 53.3226 167.12 53.8536 166.137 54.0521Z" fill="black"/>
</svg>
