<svg width="195" height="200" viewBox="0 0 195 200" fill="none" xmlns="http://www.w3.org/2000/svg">
<path d="M139.609 19.9309C139.328 19.6479 138.993 19.4234 138.625 19.2708C138.256 19.1181 137.86 19.0402 137.461 19.0416C136.929 19.0417 136.407 19.1806 135.947 19.4444L132.07 21.6506C127.598 24.2029 122.534 25.5466 117.381 25.5487C112.786 25.5427 108.256 24.4746 104.146 22.4284L97.9908 19.3638C97.57 19.1539 97.1059 19.0446 96.6353 19.0446C96.1647 19.0446 95.7006 19.1539 95.2799 19.3638L89.171 22.416C85.0575 24.469 80.5214 25.5404 75.9211 25.5456C70.7723 25.5408 65.7137 24.1984 61.2442 21.6506L57.38 19.4444C56.9184 19.1795 56.395 19.0404 55.8623 19.041C55.3297 19.0416 54.8066 19.182 54.3457 19.448C53.8847 19.714 53.5022 20.0962 53.2364 20.5563C52.9706 21.0164 52.8311 21.5381 52.8317 22.0689V56.2311C52.8037 68.5783 56.1573 80.699 62.5308 91.2867C68.9044 101.874 78.0563 110.527 89 116.313L95.2425 119.629C95.6816 119.863 96.1717 119.985 96.6695 119.985C97.1673 119.985 97.6574 119.863 98.0965 119.629L104.336 116.313C115.281 110.529 124.433 101.876 130.807 91.2877C137.181 80.6998 140.534 68.5786 140.504 56.2311V22.0689C140.505 21.6711 140.427 21.277 140.273 20.9099C140.119 20.5427 139.893 20.2099 139.609 19.9309ZM134.429 27.2653V56.2311C134.457 67.4823 131.403 78.5276 125.595 88.1757C119.788 97.8239 111.448 105.709 101.476 110.981L96.6633 113.543L91.8508 110.981C81.879 105.708 73.5402 97.8226 67.7331 88.1747C61.926 78.5267 58.8709 67.4821 58.8971 56.2311V27.2653C64.125 30.1053 69.9826 31.5966 75.9366 31.6034C81.4756 31.5972 86.9374 30.3084 91.8912 27.8385L96.6509 25.4681L101.445 27.854C106.396 30.3203 111.855 31.607 117.39 31.6127C123.345 31.6051 129.203 30.1104 134.429 27.2653Z" fill="black"/>
<path d="M98.0032 31.5072C97.5802 31.2952 97.1134 31.1848 96.6399 31.1848C96.1665 31.1848 95.6997 31.2952 95.2767 31.5072L94.0332 32.127C88.3883 34.912 82.1761 36.3645 75.8775 36.3721C73.0178 36.3711 70.1659 36.072 67.3686 35.4797C66.582 35.3145 65.7619 35.4676 65.0885 35.9051C64.4151 36.3427 63.9437 37.0289 63.7779 37.8129C63.7371 38.017 63.7163 38.2245 63.7157 38.4326V56.2373C63.6911 66.6174 66.5101 76.8073 71.8687 85.708C77.2273 94.6087 84.9221 101.882 94.1233 106.745L95.2425 107.343C95.681 107.577 96.1706 107.699 96.6679 107.699C97.1652 107.699 97.6548 107.577 98.0933 107.343L99.2156 106.745C108.417 101.882 116.112 94.6087 121.47 85.708C126.829 76.8073 129.648 66.6174 129.623 56.2373V38.4264C129.622 37.6254 129.303 36.8575 128.735 36.2911C128.166 35.7247 127.396 35.4061 126.592 35.4053C126.378 35.4047 126.164 35.4275 125.955 35.4735C123.156 36.0658 120.304 36.3649 117.443 36.3659C111.145 36.3602 104.932 34.9098 99.2871 32.127L98.0032 31.5072ZM117.443 42.4329C119.484 42.4326 121.524 42.3001 123.549 42.0363V56.2466C123.568 65.4723 121.078 74.5308 116.343 82.4579C111.607 90.385 104.804 96.884 96.657 101.263C88.51 96.884 81.7068 90.385 76.9714 82.4579C72.236 74.5308 69.7457 65.4723 69.7655 56.2466V42.0177C71.7849 42.2812 73.8192 42.4136 75.8558 42.4144C83.0677 42.4047 90.1814 40.7479 96.6508 37.5712C103.118 40.7511 110.231 42.4091 117.443 42.4174V42.4329Z" fill="#EFC94F"/>
<path d="M82.9377 63.7732C82.3688 63.2069 81.5975 62.8892 80.7935 62.8897C79.9895 62.8903 79.2187 63.2092 78.6506 63.7763C78.0825 64.3433 77.7637 65.1121 77.7643 65.9134C77.7649 66.7147 78.0848 67.483 78.6537 68.0492L89.0684 78.4296C89.3496 78.7106 89.6837 78.9335 90.0515 79.0856C90.4194 79.2377 90.8137 79.316 91.2119 79.316C91.6101 79.316 92.0044 79.2377 92.3723 79.0856C92.7401 78.9335 93.0742 78.7106 93.3555 78.4296L116.106 55.7571C116.683 55.1991 117.014 54.4362 117.027 53.6353C117.041 52.8344 116.735 52.0608 116.177 51.4841C115.619 50.9091 114.854 50.5784 114.051 50.5644C113.248 50.5505 112.472 50.8545 111.893 51.4097L91.2135 72.0217L82.9377 63.7732Z" fill="black"/>
<path d="M73.1511 118.612L54.526 107.733C52.7892 106.737 50.816 106.224 48.8123 106.247C46.8086 106.271 44.848 106.83 43.1352 107.866L36.8242 84.4223C36.1232 81.5905 34.3606 79.1338 31.8986 77.5571C29.4367 75.9803 26.4623 75.4033 23.5868 75.9445C22.1459 76.2458 20.7788 76.8276 19.5639 77.6564C18.3489 78.4852 17.31 79.5448 16.5066 80.7744C15.7032 82.0041 15.151 83.3797 14.8819 84.8223C14.6127 86.265 14.6318 87.7465 14.938 89.1818C14.9784 89.3677 15.0219 89.5505 15.0716 89.7364L26.8853 133.644C27.5988 136.346 29.1253 138.766 31.2594 140.578L43.9435 151.424C44.8054 152.158 45.4975 153.07 45.9724 154.096C46.4474 155.123 46.6938 156.24 46.6948 157.37V160.812H52.7571V157.357C52.7588 155.356 52.3254 153.377 51.4865 151.559C50.6477 149.74 49.4234 148.124 47.8979 146.822L35.2138 135.977C34.0042 134.957 33.1365 133.592 32.7268 132.067L20.9132 88.1623C20.7961 87.729 20.7385 87.2818 20.7422 86.833C20.7531 85.6662 21.1609 84.5377 21.8991 83.632C22.6372 82.7263 23.6619 82.0971 24.8054 81.8474C26.161 81.6364 27.5466 81.9425 28.6858 82.7046C29.825 83.4667 30.634 84.6289 30.9516 85.9592L38.4128 113.658C37.5517 116.181 37.6084 118.925 38.5729 121.411C39.5374 123.897 41.3483 125.965 43.6886 127.254L58.9219 136.005C59.3808 136.271 59.9021 136.411 60.4328 136.411C60.9663 136.41 61.4903 136.27 61.9523 136.004C62.4144 135.738 62.7984 135.356 63.066 134.896C63.2649 134.552 63.394 134.172 63.4457 133.779C63.4974 133.385 63.4708 132.985 63.3675 132.602C63.2641 132.219 63.086 131.86 62.8433 131.545C62.6006 131.23 62.2981 130.966 61.953 130.768L46.7197 122.012C45.5247 121.361 44.6193 120.286 44.1837 119.001C43.7482 117.715 43.8145 116.313 44.3694 115.074C44.7863 114.235 45.4308 113.528 46.2297 113.036C47.0286 112.543 47.9501 112.283 48.8897 112.285H48.9643C49.8494 112.286 50.7192 112.515 51.4886 112.951L70.0889 123.834C72.8985 125.492 75.2283 127.848 76.8505 130.672C78.4728 133.496 79.3319 136.692 79.3439 139.946V160.831H85.4061V139.928C85.3859 135.622 84.2462 131.395 82.0984 127.66C79.9506 123.924 76.8679 120.807 73.1511 118.612Z" fill="black"/>
<path d="M83.7087 183.575H48.7467C46.3819 183.572 44.1147 182.635 42.4425 180.968C40.7704 179.302 39.8299 177.042 39.8274 174.685V166.681C39.8299 164.324 40.7704 162.064 42.4425 160.398C44.1147 158.731 46.3819 157.794 48.7467 157.791H83.7087C86.0762 157.79 88.3474 158.725 90.0229 160.392C91.6984 162.059 92.6411 164.322 92.6435 166.681V174.685C92.6411 177.045 91.6984 179.307 90.0229 180.974C88.3474 182.641 86.0762 183.576 83.7087 183.575ZM48.7467 163.214C47.8243 163.215 46.9399 163.58 46.2877 164.23C45.6355 164.88 45.2687 165.762 45.2679 166.681V174.685C45.2687 175.604 45.6355 176.486 46.2877 177.136C46.9399 177.786 47.8243 178.151 48.7467 178.152H83.7087C84.6311 178.151 85.5155 177.786 86.1677 177.136C86.8199 176.486 87.1867 175.604 87.1875 174.685V166.681C87.1867 165.762 86.8199 164.88 86.1677 164.23C85.5155 163.58 84.6311 163.215 83.7087 163.214H48.7467Z" fill="#EFC94F"/>
<path d="M176.8 80.7751C176 79.5419 174.962 78.4796 173.746 77.6497C172.53 76.8199 171.161 76.2392 169.718 75.9413C169.02 75.8116 168.311 75.7462 167.601 75.7461C165.042 75.7439 162.556 76.5977 160.541 78.1708C158.527 79.7438 157.1 81.9451 156.49 84.4222L150.176 107.873C148.463 106.836 146.502 106.278 144.498 106.255C142.495 106.232 140.522 106.746 138.785 107.742L120.16 118.631C116.445 120.826 113.364 123.944 111.217 127.68C109.07 131.415 107.931 135.641 107.911 139.946V160.831H113.973V139.928C113.986 136.673 114.846 133.478 116.468 130.654C118.09 127.83 120.419 125.474 123.228 123.815L141.826 112.936C142.603 112.495 143.483 112.264 144.378 112.266H144.428C145.365 112.262 146.285 112.52 147.083 113.01C147.882 113.5 148.526 114.203 148.945 115.04C149.502 116.281 149.57 117.687 149.134 118.976C148.699 120.265 147.792 121.343 146.594 121.996L131.361 130.746C131.016 130.946 130.714 131.212 130.472 131.528C130.23 131.844 130.053 132.205 129.95 132.589C129.848 132.974 129.823 133.374 129.876 133.768C129.929 134.163 130.06 134.542 130.261 134.886C130.528 135.346 130.912 135.728 131.374 135.994C131.836 136.26 132.36 136.4 132.894 136.401C133.426 136.401 133.948 136.261 134.408 135.996L149.641 127.248C151.976 125.956 153.782 123.888 154.742 121.405C155.703 118.921 155.758 116.181 154.898 113.661L162.359 85.956C162.677 84.6305 163.484 83.4725 164.618 82.7115C165.752 81.9505 167.132 81.642 168.484 81.8473C169.626 82.0994 170.649 82.7298 171.386 83.6358C172.123 84.5418 172.53 85.6699 172.541 86.836C172.543 87.2847 172.485 87.7317 172.37 88.1653L160.556 132.07C160.148 133.596 159.28 134.961 158.069 135.98L145.385 146.825C143.86 148.127 142.636 149.743 141.798 151.562C140.96 153.381 140.527 155.359 140.529 157.36V160.812H146.591V157.357C146.597 156.227 146.848 155.112 147.327 154.087C147.807 153.063 148.503 152.154 149.368 151.424L162.052 140.578C164.188 138.767 165.718 136.347 166.435 133.644L178.249 89.7363C178.295 89.5504 178.342 89.3676 178.379 89.1817C178.687 87.746 178.706 86.2637 178.435 84.8207C178.164 83.3776 177.608 82.0026 176.8 80.7751Z" fill="black"/>
<path d="M100.683 174.685V166.681C100.685 164.324 101.626 162.064 103.298 160.398C104.97 158.731 107.237 157.794 109.602 157.791H144.561C146.925 157.795 149.192 158.732 150.863 160.399C152.535 162.065 153.475 164.325 153.477 166.681V174.685C153.475 177.041 152.535 179.301 150.863 180.967C149.192 182.634 146.925 183.572 144.561 183.575H109.602C107.237 183.572 104.97 182.635 103.298 180.968C101.626 179.302 100.685 177.042 100.683 174.685ZM109.602 163.22C108.68 163.221 107.796 163.586 107.143 164.237C106.491 164.887 106.124 165.768 106.123 166.687V174.691C106.124 175.61 106.491 176.492 107.143 177.142C107.796 177.792 108.68 178.158 109.602 178.158H144.561C145.483 178.157 146.367 177.791 147.018 177.141C147.67 176.491 148.036 175.61 148.037 174.691V166.681C148.036 165.762 147.67 164.881 147.018 164.231C146.367 163.581 145.483 163.215 144.561 163.214L109.602 163.22Z" fill="#EFC94F"/>
</svg>
