<svg width="195" height="200" viewBox="0 0 195 200" fill="none" xmlns="http://www.w3.org/2000/svg">
<path d="M62.2454 121.822C63.3541 121.258 64.6405 121.151 65.8281 121.522C67.0157 121.894 68.0097 122.714 68.5967 123.808L77.3761 140.011C77.7048 140.618 78.2272 141.098 78.8607 141.376C79.4942 141.653 80.2025 141.712 80.8734 141.543C81.5443 141.374 82.1395 140.987 82.5647 140.443C82.9899 139.899 83.2207 139.229 83.2207 138.539V112.402C83.2207 111.581 82.8932 110.792 82.3102 110.211C81.7271 109.63 80.9364 109.304 80.1119 109.304C79.2874 109.304 78.4966 109.63 77.9136 110.211C77.3306 110.792 77.003 111.581 77.003 112.402V126.281L74.0683 120.865C72.7983 118.525 70.718 116.727 68.2154 115.804C65.7128 114.88 62.9588 114.896 60.4669 115.848C57.9751 116.8 55.9157 118.622 54.6727 120.976C53.4298 123.329 53.0882 126.053 53.7116 128.639L59.4039 152.142C60.7172 157.62 63.1132 162.781 66.4516 167.325L77.5999 182.533C78.0864 183.197 78.8174 183.641 79.6322 183.767C80.447 183.893 81.2787 183.692 81.9445 183.207C82.6103 182.722 83.0556 181.994 83.1824 181.182C83.3092 180.37 83.1072 179.541 82.6207 178.877L71.4724 163.66C68.622 159.78 66.574 155.374 65.4475 150.698L59.7552 127.186C59.5002 126.143 59.6076 125.044 60.0599 124.07C60.5122 123.096 61.2827 122.303 62.2454 121.822Z" fill="black"/>
<path d="M132.437 108.616C130.666 108.614 128.923 109.057 127.369 109.905C126.822 108.476 125.97 107.182 124.87 106.115C123.771 105.047 122.452 104.231 121.004 103.723C119.557 103.215 118.016 103.027 116.488 103.173C114.96 103.318 113.483 103.794 112.158 104.566C110.995 102.026 108.869 100.05 106.246 99.072C103.623 98.0937 100.718 98.1929 98.168 99.3478V84.5334C98.168 81.7355 97.0529 79.0523 95.068 77.0739C93.0831 75.0956 90.391 73.9841 87.5839 73.9841C84.7769 73.9841 82.0848 75.0956 80.0999 77.0739C78.115 79.0523 76.9999 81.7355 76.9999 84.5334V93.005C76.9999 93.8268 77.3274 94.6149 77.9104 95.196C78.4935 95.7771 79.2842 96.1036 80.1087 96.1036C80.9332 96.1036 81.724 95.7771 82.307 95.196C82.89 94.6149 83.2176 93.8268 83.2176 93.005V84.5334C83.2176 83.3791 83.6776 82.2722 84.4964 81.456C85.3153 80.6399 86.4259 80.1814 87.5839 80.1814C88.742 80.1814 89.8526 80.6399 90.6714 81.456C91.4903 82.2722 91.9503 83.3791 91.9503 84.5334V128.258C91.9503 129.08 92.2778 129.868 92.8609 130.449C93.4439 131.03 94.2346 131.357 95.0591 131.357C95.8837 131.357 96.6744 131.03 97.2574 130.449C97.8405 129.868 98.168 129.08 98.168 128.258V108.954C98.168 107.799 98.628 106.692 99.4469 105.876C100.266 105.06 101.376 104.602 102.534 104.602C103.692 104.602 104.803 105.06 105.622 105.876C106.441 106.692 106.901 107.799 106.901 108.954V128.258C106.901 129.08 107.228 129.868 107.811 130.449C108.394 131.03 109.185 131.357 110.01 131.357C110.834 131.357 111.625 131.03 112.208 130.449C112.791 129.868 113.118 129.08 113.118 128.258V113.673C113.118 112.519 113.578 111.412 114.397 110.595C115.216 109.779 116.327 109.321 117.485 109.321C118.643 109.321 119.753 109.779 120.572 110.595C121.391 111.412 121.851 112.519 121.851 113.673V128.258C121.851 129.08 122.179 129.868 122.762 130.449C123.345 131.03 124.135 131.357 124.96 131.357C125.785 131.357 126.575 131.03 127.158 130.449C127.741 129.868 128.069 129.08 128.069 128.258V119.163C128.069 118.009 128.529 116.902 129.348 116.086C130.167 115.27 131.277 114.811 132.435 114.811C133.593 114.811 134.704 115.27 135.523 116.086C136.342 116.902 136.802 118.009 136.802 119.163V145.325C136.803 152.285 135.74 159.204 133.649 165.844L129.266 179.788C129.019 180.572 129.096 181.421 129.477 182.149C129.859 182.877 130.516 183.425 131.302 183.67C131.604 183.766 131.918 183.815 132.235 183.813C132.896 183.813 133.541 183.603 134.074 183.213C134.607 182.822 135.002 182.273 135.201 181.644L139.587 167.7C141.86 160.458 143.013 152.913 143.007 145.325V119.163C143.004 116.369 141.89 113.689 139.909 111.712C137.928 109.735 135.241 108.622 132.437 108.616Z" fill="black"/>
<path d="M82.3097 100.172C81.8011 99.6653 81.1318 99.3499 80.416 99.2798C79.7002 99.2096 78.9821 99.389 78.3842 99.7874C77.7862 100.186 77.3453 100.778 77.1366 101.465C76.928 102.151 76.9644 102.888 77.2398 103.55C77.5152 104.212 78.0124 104.759 78.6468 105.097C79.2812 105.434 80.0135 105.542 80.7189 105.402C81.4243 105.262 82.0592 104.883 82.5154 104.329C82.9715 103.775 83.2208 103.08 83.2206 102.363C83.2178 101.542 82.8905 100.755 82.3097 100.172Z" fill="black"/>
<path d="M28.7941 57.876C28.127 57.8741 27.4682 57.7274 26.8637 57.446C26.2591 57.1646 25.7234 56.7553 25.2938 56.2466C24.8641 55.7378 24.5508 55.1418 24.3758 54.5001C24.2007 53.8584 24.1681 53.1864 24.2801 52.5309L26.0708 42.1195L18.4821 34.7479C17.8699 34.1528 17.437 33.3988 17.2324 32.5712C17.0277 31.7437 17.0595 30.8756 17.3241 30.065C17.5887 29.2545 18.0756 28.534 18.7296 27.9849C19.3837 27.4358 20.1788 27.0801 21.0251 26.958L31.5113 25.4366L36.1994 15.9672C36.5782 15.2028 37.164 14.5592 37.8905 14.1092C38.6171 13.6591 39.4554 13.4207 40.3109 13.4207C41.1663 13.4207 42.0046 13.6591 42.7312 14.1092C43.4577 14.5592 44.0435 15.2028 44.4223 15.9672L49.1198 25.4335L59.5997 26.958C60.4464 27.0802 61.2419 27.4361 61.8961 27.9856C62.5503 28.5351 63.0371 29.2561 63.3015 30.0671C63.5658 30.8781 63.597 31.7467 63.3917 32.5745C63.1864 33.4023 62.7526 34.1562 62.1396 34.751L54.5509 42.1226L56.3416 52.534C56.4864 53.3741 56.3924 54.2378 56.0702 55.0275C55.7481 55.8171 55.2106 56.5012 54.5187 57.0022C53.8268 57.5032 53.008 57.8013 52.155 57.8626C51.3019 57.9239 50.4487 57.7461 49.6918 57.3492L40.3124 52.4348L30.9299 57.3461C30.2716 57.6926 29.5386 57.8744 28.7941 57.876ZM23.8573 32.1792L32.0833 40.1736L30.1558 51.4587L40.3248 46.1291L50.4939 51.4587L48.5508 40.1736L56.7768 32.1792L45.3892 30.5338L40.3124 20.265L35.2263 30.5338L23.8573 32.1792Z" fill="#EFC94F"/>
<path d="M86.6933 57.876C86.0261 57.8742 85.3673 57.7275 84.7628 57.4461C84.1583 57.1647 83.6226 56.7554 83.1929 56.2466C82.7633 55.7379 82.45 55.1419 82.275 54.5002C82.0999 53.8585 82.0672 53.1865 82.1793 52.5309L83.97 42.1196L76.3813 34.748C75.7691 34.1528 75.3362 33.3989 75.1316 32.5713C74.9269 31.7437 74.9587 30.8756 75.2233 30.0651C75.4879 29.2546 75.9747 28.534 76.6288 27.985C77.2828 27.4359 78.078 27.0802 78.9243 26.958L89.4104 25.4366L94.0986 15.9673C94.4751 15.2007 95.0605 14.5552 95.7879 14.1047C96.5153 13.6543 97.3552 13.4171 98.2116 13.4202C99.0676 13.4169 99.9071 13.6541 100.634 14.1046C101.361 14.5551 101.946 15.2007 102.321 15.9673L107.01 25.4366L117.514 26.958C118.361 27.0802 119.157 27.4362 119.811 27.9856C120.465 28.5351 120.952 29.2562 121.216 30.0672C121.48 30.8782 121.512 31.7467 121.306 32.5745C121.101 33.4023 120.667 34.1563 120.054 34.7511L112.466 42.1227L114.256 52.534C114.401 53.3741 114.307 54.2379 113.985 55.0275C113.663 55.8172 113.125 56.5012 112.433 57.0022C111.741 57.5033 110.923 57.8013 110.07 57.8626C109.217 57.924 108.363 57.7461 107.607 57.3492L98.2271 52.4348L88.8446 57.3492C88.1814 57.6971 87.4428 57.8779 86.6933 57.876ZM98.2116 46.1292L108.381 51.4588L106.438 40.1736L114.664 32.1792L103.295 30.5338L98.2116 20.265L93.1255 30.5338L81.7627 32.1792L89.9887 40.1736L88.0488 51.4588L98.2116 46.1292Z" fill="#EFC94F"/>
<path d="M167.626 57.876C166.881 57.8744 166.148 57.6926 165.49 57.3461L156.111 52.4317L146.738 57.3461C145.981 57.743 145.127 57.9208 144.274 57.8595C143.421 57.7982 142.603 57.5001 141.911 56.9991C141.219 56.4981 140.681 55.814 140.359 55.0244C140.037 54.2347 139.943 53.371 140.088 52.5309L141.878 42.1195L134.29 34.7479C133.678 34.1534 133.245 33.4002 133.04 32.5733C132.834 31.7464 132.865 30.8788 133.129 30.0686C133.393 29.2583 133.878 28.5376 134.531 27.988C135.184 27.4383 135.978 27.0815 136.823 26.958L147.31 25.4397L151.998 15.9672C152.377 15.2028 152.962 14.5592 153.689 14.1092C154.415 13.6591 155.254 13.4207 156.109 13.4207C156.965 13.4207 157.803 13.6591 158.529 14.1092C159.256 14.5592 159.842 15.2028 160.221 15.9672L164.909 25.4366L175.398 26.958C176.245 27.0802 177.04 27.4361 177.694 27.9856C178.349 28.5351 178.835 29.2561 179.1 30.0671C179.364 30.8781 179.395 31.7467 179.19 32.5745C178.985 33.4023 178.551 34.1562 177.938 34.751L170.365 42.1195L172.155 52.5309C172.267 53.1864 172.235 53.8584 172.06 54.5001C171.885 55.1418 171.571 55.7378 171.142 56.2466C170.712 56.7553 170.176 57.1646 169.572 57.446C168.967 57.7274 168.309 57.8741 167.641 57.876H167.626ZM139.646 32.1792L147.872 40.1736L145.932 51.4587L156.101 46.1291L166.267 51.4587L164.327 40.1736L172.553 32.1792L161.194 30.5338L156.108 20.265L151.025 30.5338L139.646 32.1792Z" fill="#EFC94F"/>
</svg>
