<svg width="194" height="200" viewBox="0 0 194 200" fill="none" xmlns="http://www.w3.org/2000/svg">
<path d="M173.061 173.126H116.047V114.252C116.047 113.43 115.72 112.642 115.139 112.061C114.558 111.48 113.77 111.153 112.948 111.153H80.7225C79.9007 111.153 79.1125 111.48 78.5314 112.061C77.9503 112.642 77.6238 113.43 77.6238 114.252V173.126H20.6094C19.7876 173.126 18.9994 173.452 18.4183 174.033C17.8372 174.614 17.5107 175.403 17.5107 176.224C17.5107 177.046 17.8372 177.834 18.4183 178.415C18.9994 178.996 19.7876 179.323 20.6094 179.323H173.061C173.883 179.323 174.671 178.996 175.252 178.415C175.833 177.834 176.16 177.046 176.16 176.224C176.16 175.403 175.833 174.614 175.252 174.033C174.671 173.452 173.883 173.126 173.061 173.126ZM109.849 173.126H83.8211V117.351H109.849V173.126Z" fill="black"/>
<path d="M20.6087 103.097H34.2426V166.99C34.2426 167.397 34.3227 167.8 34.4785 168.176C34.6342 168.552 34.8624 168.894 35.1502 169.181C35.4379 169.469 35.7795 169.697 36.1554 169.853C36.5314 170.009 36.9343 170.089 37.3412 170.089C37.7481 170.089 38.1511 170.009 38.527 169.853C38.9029 169.697 39.2445 169.469 39.5323 169.181C39.82 168.894 40.0482 168.552 40.2039 168.176C40.3597 167.8 40.4398 167.397 40.4398 166.99V103.097H41.6328C42.4545 103.097 43.2425 102.77 43.8235 102.189L96.8346 49.178L149.846 102.192C150.427 102.772 151.215 103.098 152.036 103.097H153.229V166.99C153.229 167.812 153.556 168.6 154.137 169.181C154.718 169.763 155.506 170.089 156.328 170.089C157.15 170.089 157.938 169.763 158.519 169.181C159.1 168.6 159.427 167.812 159.427 166.99V103.097H173.06C173.673 103.097 174.272 102.915 174.782 102.575C175.291 102.234 175.688 101.75 175.923 101.184C176.157 100.618 176.218 99.9951 176.099 99.3941C175.979 98.7931 175.684 98.241 175.251 97.8077L99.0253 21.5818C98.4442 21.0009 97.6562 20.6746 96.8346 20.6746C96.0129 20.6746 95.2249 21.0009 94.6439 21.5818L18.418 97.8077C17.9848 98.241 17.6898 98.7931 17.5702 99.3941C17.4507 99.9951 17.5121 100.618 17.7466 101.184C17.981 101.75 18.3781 102.234 18.8875 102.575C19.397 102.915 19.9959 103.097 20.6087 103.097ZM52.5461 72.4424L96.8346 28.154L165.58 96.8998H153.319L99.0253 42.6059C98.4442 42.025 97.6562 41.6987 96.8346 41.6987C96.0129 41.6987 95.2249 42.025 94.6439 42.6059L40.35 96.8998H28.0887L52.5461 72.4424Z" fill="black"/>
<path d="M143.314 111.153H125.962C125.14 111.153 124.352 111.48 123.771 112.061C123.19 112.642 122.863 113.43 122.863 114.252V145.238C122.863 146.06 123.19 146.848 123.771 147.429C124.352 148.01 125.14 148.337 125.962 148.337H143.314C144.136 148.337 144.924 148.01 145.505 147.429C146.086 146.848 146.413 146.06 146.413 145.238V114.252C146.413 113.43 146.086 112.642 145.505 112.061C144.924 111.48 144.136 111.153 143.314 111.153ZM140.216 142.14H129.061V117.351H140.216V142.14Z" fill="#EFC94F"/>
<path d="M67.7077 111.153H50.3554C49.5336 111.153 48.7455 111.48 48.1644 112.061C47.5833 112.642 47.2568 113.43 47.2568 114.252V145.238C47.2568 146.06 47.5833 146.848 48.1644 147.429C48.7455 148.01 49.5336 148.337 50.3554 148.337H67.7077C68.5295 148.337 69.3176 148.01 69.8987 147.429C70.4798 146.848 70.8063 146.06 70.8063 145.238V114.252C70.8063 113.43 70.4798 112.642 69.8987 112.061C69.3176 111.48 68.5295 111.153 67.7077 111.153ZM64.6091 142.14H53.4541V117.351H64.6091V142.14Z" fill="#EFC94F"/>
<path d="M96.8347 71.578C94.0156 71.578 91.2598 72.414 88.9158 73.9802C86.5718 75.5464 84.7449 77.7725 83.666 80.377C82.5872 82.9815 82.305 85.8474 82.8549 88.6124C83.4049 91.3773 84.7624 93.9171 86.7558 95.9105C88.7493 97.9039 91.289 99.2614 94.0539 99.8114C96.8189 100.361 99.6848 100.079 102.289 99.0003C104.894 97.9214 107.12 96.0945 108.686 93.7505C110.252 91.4065 111.088 88.6507 111.088 85.8316C111.083 82.0528 109.58 78.4302 106.908 75.7582C104.236 73.0862 100.613 71.5829 96.8347 71.578ZM96.8347 93.888C95.2413 93.888 93.6837 93.4155 92.3588 92.5303C91.0339 91.645 90.0013 90.3868 89.3915 88.9147C88.7818 87.4426 88.6222 85.8227 88.9331 84.2599C89.2439 82.6971 90.0112 81.2616 91.1379 80.1349C92.2647 79.0082 93.7002 78.2409 95.263 77.93C96.8257 77.6192 98.4456 77.7787 99.9177 78.3885C101.39 78.9983 102.648 80.0309 103.533 81.3557C104.419 82.6806 104.891 84.2382 104.891 85.8316C104.891 87.9683 104.042 90.0175 102.531 91.5284C101.021 93.0392 98.9714 93.888 96.8347 93.888Z" fill="black"/>
<path d="M93.138 143.047C92.631 142.541 91.9639 142.225 91.2505 142.155C90.537 142.085 89.8213 142.264 89.2253 142.663C88.6293 143.061 88.1899 143.654 87.9819 144.34C87.7739 145.026 87.8103 145.763 88.0847 146.425C88.3592 147.087 88.8548 147.634 89.4871 147.972C90.1194 148.31 90.8493 148.418 91.5524 148.278C92.2554 148.138 92.8882 147.758 93.3429 147.204C93.7976 146.65 94.046 145.955 94.0459 145.238C94.043 144.417 93.7168 143.63 93.138 143.047Z" fill="black"/>
</svg>
