<svg width="194" height="200" viewBox="0 0 194 200" fill="none" xmlns="http://www.w3.org/2000/svg">
<path d="M140.677 172.317C140.442 172.073 140.16 171.881 139.847 171.752C139.535 171.623 139.199 171.56 138.861 171.567H48.53C48.1381 171.554 47.7476 171.621 47.3818 171.762C47.0159 171.903 46.6822 172.116 46.4004 172.389C46.1187 172.662 45.8946 172.988 45.7416 173.349C45.5886 173.71 45.5098 174.098 45.5098 174.491C45.5098 174.883 45.5886 175.271 45.7416 175.632C45.8946 175.993 46.1187 176.32 46.4004 176.592C46.6822 176.865 47.0159 177.078 47.3818 177.22C47.7476 177.361 48.1381 177.427 48.53 177.414H138.557C139.304 177.42 140.024 177.136 140.566 176.621C141.108 176.107 141.43 175.403 141.464 174.656C141.496 174.234 141.443 173.809 141.308 173.407C141.173 173.005 140.958 172.634 140.677 172.317Z" fill="black"/>
<path d="M86.0117 71.3673H75.4361C74.7348 71.3681 74.0625 71.6473 73.5669 72.1435C73.0713 72.6396 72.793 73.3122 72.793 74.0135V89.8784C72.793 90.5794 73.0714 91.2517 73.5671 91.7474C74.0628 92.2431 74.7351 92.5215 75.4361 92.5215H86.0117C86.713 92.5215 87.3856 92.2432 87.8817 91.7476C88.3779 91.252 88.6571 90.5797 88.6579 89.8784V74.0135C88.6571 73.312 88.378 72.6394 87.8819 72.1433C87.3859 71.6472 86.7132 71.3681 86.0117 71.3673ZM83.3686 87.2322H78.0854V76.6566H83.3748L83.3686 87.2322Z" fill="black"/>
<path d="M154.76 134.827H144.184C143.483 134.828 142.81 135.107 142.314 135.603C141.818 136.099 141.539 136.772 141.538 137.473V153.338C141.539 154.039 141.818 154.712 142.314 155.207C142.81 155.703 143.483 155.981 144.184 155.981H154.76C155.461 155.981 156.133 155.703 156.629 155.207C157.124 154.711 157.403 154.039 157.403 153.338V137.473C157.403 136.772 157.125 136.099 156.629 135.603C156.133 135.107 155.461 134.828 154.76 134.827ZM152.117 150.692H146.827V140.116H152.117V150.692Z" fill="black"/>
<path d="M27.8409 118.962C14.771 118.962 14.6191 152.994 14.6191 153.338C14.6244 156.384 15.6793 159.335 17.6062 161.694C19.5331 164.054 22.2141 165.677 25.1978 166.29V179.778C25.1978 180.479 25.4763 181.152 25.972 181.647C26.4676 182.143 27.1399 182.421 27.8409 182.421C28.5419 182.421 29.2142 182.143 29.7099 181.647C30.2056 181.152 30.484 180.479 30.484 179.778V166.29C33.4677 165.677 36.1488 164.054 38.0756 161.694C40.0025 159.335 41.0574 156.384 41.0627 153.338C41.0627 152.994 40.9016 118.962 27.8409 118.962ZM27.8409 161.27C25.7381 161.267 23.7224 160.43 22.2355 158.943C20.7485 157.456 19.9117 155.441 19.9085 153.338C19.9085 140.163 23.4471 124.251 27.8409 124.251C32.2347 124.251 35.7734 140.163 35.7734 153.338C35.7701 155.441 34.9333 157.456 33.4464 158.943C31.9595 160.43 29.9437 161.267 27.8409 161.27Z" fill="#EFC94F"/>
<path d="M43.707 103.097H33.1314C32.4301 103.098 31.7578 103.377 31.2622 103.873C30.7667 104.369 30.4883 105.042 30.4883 105.743V111.03C30.4883 111.731 30.7668 112.403 31.2624 112.899C31.7581 113.394 32.4304 113.673 33.1314 113.673C33.8324 113.673 34.5047 113.394 35.0004 112.899C35.496 112.403 35.7745 111.731 35.7745 111.03V108.387H41.0639V121.608C41.0873 122.294 41.3762 122.944 41.8697 123.421C42.3631 123.897 43.0224 124.164 43.7085 124.164C44.3947 124.164 45.054 123.897 45.5474 123.421C46.0408 122.944 46.3297 122.294 46.3532 121.608V105.743C46.3524 105.042 46.0733 104.369 45.5772 103.873C45.0811 103.377 44.4085 103.098 43.707 103.097Z" fill="black"/>
<path d="M154.76 71.3673H144.184C143.483 71.3681 142.81 71.6472 142.314 72.1433C141.818 72.6394 141.539 73.312 141.538 74.0135V89.8784C141.539 90.5797 141.818 91.252 142.314 91.7476C142.81 92.2432 143.483 92.5215 144.184 92.5215H154.76C155.461 92.5215 156.133 92.2431 156.629 91.7474C157.124 91.2517 157.403 90.5794 157.403 89.8784V74.0135C157.403 73.3122 157.125 72.6396 156.629 72.1435C156.133 71.6473 155.461 71.3681 154.76 71.3673ZM152.117 87.2322H146.827V76.6566H152.117V87.2322Z" fill="#EFC94F"/>
<path d="M43.7061 71.3673H33.1306C32.429 71.3681 31.7564 71.6472 31.2603 72.1433C30.7643 72.6394 30.4852 73.312 30.4844 74.0135V89.8784C30.4852 90.5797 30.7644 91.252 31.2605 91.7476C31.7567 92.2432 32.4293 92.5215 33.1306 92.5215H43.7061C44.4071 92.5215 45.0794 92.2431 45.5751 91.7474C46.0708 91.2517 46.3493 90.5794 46.3493 89.8784V74.0135C46.3493 73.3122 46.0709 72.6396 45.5753 72.1435C45.0797 71.6473 44.4074 71.3681 43.7061 71.3673ZM41.063 87.2322H35.7737V76.6566H41.063V87.2322Z" fill="#EFC94F"/>
<path d="M112.455 71.3673H101.877C101.175 71.3681 100.503 71.6473 100.007 72.1435C99.5118 72.6396 99.2334 73.3122 99.2334 74.0135V89.8784C99.2334 90.5794 99.5119 91.2517 100.008 91.7474C100.503 92.2431 101.176 92.5215 101.877 92.5215H112.455C113.156 92.5215 113.828 92.2431 114.324 91.7474C114.82 91.2517 115.098 90.5794 115.098 89.8784V74.0135C115.098 73.3122 114.82 72.6396 114.324 72.1435C113.829 71.6473 113.156 71.3681 112.455 71.3673ZM109.809 87.2322H104.523V76.6566H109.809V87.2322Z" fill="black"/>
<path d="M112.455 39.6375H101.877C101.175 39.6383 100.503 39.9174 100.007 40.4136C99.5118 40.9098 99.2334 41.5824 99.2334 42.2837V58.1486C99.2334 58.8496 99.5119 59.5219 100.008 60.0175C100.503 60.5132 101.176 60.7917 101.877 60.7917H112.455C113.156 60.7917 113.828 60.5132 114.324 60.0175C114.82 59.5219 115.098 58.8496 115.098 58.1486V42.2837C115.098 41.5824 114.82 40.9098 114.324 40.4136C113.829 39.9174 113.156 39.6383 112.455 39.6375ZM109.809 55.5023H104.523V44.9299H109.809V55.5023Z" fill="#EFC94F"/>
<path d="M112.455 103.097H101.877C101.175 103.098 100.503 103.377 100.007 103.873C99.5118 104.369 99.2334 105.042 99.2334 105.743V121.608C99.2334 122.309 99.5119 122.982 100.008 123.477C100.503 123.973 101.176 124.251 101.877 124.251H112.455C113.156 124.251 113.828 123.973 114.324 123.477C114.82 122.982 115.098 122.309 115.098 121.608V105.743C115.098 105.042 114.82 104.369 114.324 103.873C113.829 103.377 113.156 103.098 112.455 103.097ZM109.809 118.962H104.523V108.386H109.809V118.962Z" fill="black"/>
<path d="M86.0117 39.6375H75.4361C74.7348 39.6383 74.0625 39.9174 73.5669 40.4136C73.0713 40.9098 72.793 41.5824 72.793 42.2837V58.1486C72.793 58.8496 73.0714 59.5219 73.5671 60.0175C74.0628 60.5132 74.7351 60.7917 75.4361 60.7917H86.0117C86.713 60.7917 87.3856 60.5133 87.8817 60.0177C88.3779 59.5221 88.6571 58.8498 88.6579 58.1486V42.2837C88.6571 41.5821 88.378 40.9095 87.8819 40.4134C87.3859 39.9173 86.7132 39.6383 86.0117 39.6375ZM83.3686 55.5023H78.0854V44.9299H83.3748L83.3686 55.5023Z" fill="#EFC94F"/>
<path d="M86.0117 103.097H75.4361C74.7348 103.098 74.0625 103.377 73.5669 103.873C73.0713 104.369 72.793 105.042 72.793 105.743V121.608C72.793 122.309 73.0714 122.982 73.5671 123.477C74.0628 123.973 74.7351 124.251 75.4361 124.251H86.0117C86.713 124.251 87.3856 123.973 87.8817 123.477C88.3779 122.982 88.6571 122.31 88.6579 121.608V105.743C88.6571 105.042 88.378 104.369 87.8819 103.873C87.3859 103.377 86.7132 103.098 86.0117 103.097ZM83.3686 118.962H78.0854V108.386H83.3748L83.3686 118.962Z" fill="black"/>
<path d="M67.5039 141.191C67.5047 141.893 67.7839 142.565 68.2801 143.061C68.7762 143.556 69.4488 143.835 70.1501 143.835H78.0857V173.212C78.0857 173.913 78.3641 174.586 78.8598 175.081C79.3555 175.577 80.0278 175.856 80.7288 175.856C81.4298 175.856 82.1021 175.577 82.5977 175.081C83.0934 174.586 83.3719 173.913 83.3719 173.212V143.838H104.526V173.212C104.55 173.898 104.839 174.548 105.332 175.025C105.825 175.502 106.485 175.768 107.171 175.768C107.857 175.768 108.516 175.502 109.01 175.025C109.503 174.548 109.792 173.898 109.815 173.212V143.838H117.748C118.434 143.814 119.083 143.525 119.56 143.032C120.037 142.538 120.304 141.879 120.304 141.193C120.304 140.507 120.037 139.848 119.56 139.354C119.083 138.861 118.434 138.572 117.748 138.548H70.1501C69.4491 138.549 68.777 138.828 68.281 139.323C67.785 139.819 67.5055 140.49 67.5039 141.191Z" fill="black"/>
<path d="M154.76 103.097H144.184C143.483 103.098 142.81 103.377 142.314 103.873C141.818 104.369 141.539 105.042 141.538 105.743V121.608C141.539 122.31 141.818 122.982 142.314 123.477C142.81 123.973 143.483 124.251 144.184 124.251H154.76C155.461 124.251 156.133 123.973 156.629 123.477C157.124 122.982 157.403 122.309 157.403 121.608V105.743C157.403 105.042 157.125 104.369 156.629 103.873C156.133 103.377 155.461 103.098 154.76 103.097ZM152.117 118.962H146.827V108.386H152.117V118.962Z" fill="black"/>
<path d="M170.626 55.2234H138.896C138.137 55.2481 137.418 55.567 136.89 56.1125C136.361 56.6581 136.066 57.3877 136.066 58.147C136.066 58.9063 136.361 59.6358 136.89 60.1814C137.418 60.7269 138.137 61.0458 138.896 61.0705H167.713V166.656C166.56 166.281 165.335 166.183 164.137 166.371C163.182 164.734 161.815 163.377 160.171 162.434C158.528 161.49 156.667 160.994 154.772 160.994C152.877 160.994 151.015 161.49 149.372 162.434C147.729 163.377 146.362 164.734 145.406 166.371C145.005 166.309 144.6 166.277 144.195 166.278C142.018 166.282 139.932 167.148 138.393 168.687C136.854 170.226 135.987 172.313 135.983 174.489C135.983 175.423 136.144 176.349 136.457 177.228C137.026 178.829 138.075 180.214 139.462 181.194C140.849 182.173 142.506 182.7 144.204 182.7H165.355C167.532 182.699 169.62 181.833 171.16 180.294C172.699 178.754 173.565 176.666 173.566 174.489V58.1485C173.566 57.7632 173.49 57.3817 173.341 57.026C173.193 56.6703 172.976 56.3473 172.703 56.0756C172.43 55.8038 172.106 55.5887 171.749 55.4424C171.393 55.2962 171.011 55.2218 170.626 55.2234ZM144.185 172.125C144.642 172.126 145.088 172.261 145.468 172.512C145.862 172.766 146.312 172.922 146.779 172.966C147.245 173.01 147.716 172.941 148.151 172.765C148.585 172.588 148.971 172.31 149.275 171.953C149.58 171.597 149.794 171.172 149.899 170.715C150.151 169.614 150.769 168.63 151.653 167.926C152.536 167.222 153.633 166.838 154.763 166.838C155.892 166.838 156.989 167.222 157.872 167.926C158.756 168.63 159.374 169.614 159.626 170.715C159.732 171.171 159.946 171.595 160.25 171.952C160.554 172.308 160.939 172.586 161.373 172.763C161.722 172.905 162.094 172.978 162.47 172.977C163.033 172.977 163.583 172.816 164.057 172.512C164.415 172.281 164.833 172.158 165.259 172.159C166.44 172.159 167.704 173.088 167.704 174.489C167.704 175.117 167.454 175.719 167.01 176.163C166.567 176.607 165.964 176.856 165.337 176.856H144.185C143.868 176.868 143.551 176.815 143.254 176.702C142.956 176.588 142.685 176.415 142.456 176.195C142.227 175.974 142.045 175.709 141.921 175.416C141.797 175.124 141.732 174.809 141.732 174.491C141.732 174.173 141.797 173.858 141.921 173.565C142.045 173.272 142.227 173.007 142.456 172.787C142.685 172.566 142.956 172.393 143.254 172.28C143.551 172.166 143.868 172.113 144.185 172.125Z" fill="black"/>
<path d="M48.9955 55.2235H17.2657C16.4907 55.2252 15.748 55.534 15.2003 56.0822C14.6526 56.6305 14.3446 57.3736 14.3438 58.1486V111.03C14.3438 111.805 14.6516 112.548 15.1996 113.096C15.7476 113.644 16.4908 113.952 17.2657 113.952C18.0407 113.952 18.7839 113.644 19.3319 113.096C19.8799 112.548 20.1877 111.805 20.1877 111.03V61.0706H49.0048C49.7637 61.0459 50.4833 60.727 51.0114 60.1815C51.5395 59.6359 51.8347 58.9064 51.8347 58.1471C51.8347 57.3878 51.5395 56.6582 51.0114 56.1126C50.4833 55.5671 49.7637 55.2482 49.0048 55.2235H48.9955Z" fill="black"/>
<path d="M170.624 55.0686H138.894C138.095 55.094 137.336 55.4294 136.78 56.004C136.223 56.5785 135.912 57.3471 135.912 58.1471C135.912 58.947 136.223 59.7156 136.78 60.2902C137.336 60.8647 138.095 61.2002 138.894 61.2255H167.547V166.448C166.828 166.242 166.083 166.137 165.335 166.138C164.957 166.139 164.58 166.166 164.207 166.219C163.232 164.581 161.849 163.224 160.192 162.282C158.535 161.34 156.662 160.845 154.756 160.845C152.85 160.845 150.977 161.34 149.32 162.282C147.663 163.224 146.28 164.581 145.305 166.219C144.931 166.166 144.553 166.139 144.174 166.138C142.499 166.141 140.862 166.646 139.477 167.589C138.092 168.532 137.022 169.87 136.406 171.428H48.5293C48.1168 171.415 47.7059 171.485 47.3209 171.633C46.936 171.782 46.5849 172.007 46.2885 172.294C45.9921 172.581 45.7564 172.925 45.5955 173.305C45.4345 173.685 45.3516 174.093 45.3516 174.506C45.3516 174.919 45.4345 175.327 45.5955 175.707C45.7564 176.087 45.9921 176.431 46.2885 176.718C46.5849 177.006 46.936 177.23 47.3209 177.379C47.7059 177.528 48.1168 177.598 48.5293 177.585H136.415C137.032 179.142 138.102 180.479 139.487 181.421C140.872 182.364 142.508 182.869 144.183 182.871H165.335C167.553 182.871 169.681 181.989 171.25 180.42C172.819 178.852 173.701 176.724 173.701 174.505V58.1486C173.701 57.3323 173.377 56.5493 172.8 55.9718C172.223 55.3943 171.44 55.0694 170.624 55.0686ZM165.335 176.702H144.183C143.838 176.705 143.496 176.626 143.186 176.474C142.876 176.321 142.606 176.097 142.398 175.821C142.19 175.545 142.049 175.224 141.988 174.884C141.926 174.544 141.945 174.194 142.043 173.862C142.141 173.531 142.315 173.227 142.552 172.975C142.788 172.723 143.081 172.53 143.405 172.411C143.73 172.293 144.078 172.252 144.421 172.292C144.765 172.332 145.094 172.452 145.383 172.642C145.798 172.909 146.271 173.073 146.763 173.119C147.254 173.165 147.75 173.092 148.207 172.906C148.664 172.721 149.071 172.428 149.391 172.052C149.712 171.677 149.937 171.23 150.049 170.749C150.291 169.68 150.889 168.726 151.745 168.042C152.602 167.358 153.665 166.985 154.761 166.985C155.856 166.985 156.92 167.358 157.776 168.042C158.632 168.726 159.23 169.68 159.472 170.749C159.584 171.23 159.809 171.677 160.13 172.052C160.451 172.428 160.857 172.721 161.314 172.906C161.772 173.092 162.267 173.165 162.759 173.119C163.25 173.073 163.723 172.909 164.139 172.642C164.472 172.427 164.86 172.313 165.257 172.314C166.363 172.314 167.547 173.188 167.547 174.483C167.548 174.774 167.491 175.062 167.38 175.332C167.27 175.601 167.107 175.845 166.901 176.051C166.696 176.257 166.452 176.421 166.183 176.533C165.914 176.644 165.626 176.702 165.335 176.702Z" fill="black"/>
<path d="M52.0721 58.1486C52.0721 57.3323 51.748 56.5493 51.1711 55.9718C50.5941 55.3943 49.8115 55.0694 48.9952 55.0686H17.2654C16.4491 55.0694 15.6664 55.3943 15.0895 55.9718C14.5126 56.5493 14.1885 57.3323 14.1885 58.1486V111.03C14.1885 111.846 14.5127 112.628 15.0897 113.205C15.6667 113.782 16.4493 114.106 17.2654 114.106C18.0814 114.106 18.8641 113.782 19.4411 113.205C20.0181 112.628 20.3423 111.846 20.3423 111.03V61.2255H48.9952C49.811 61.2247 50.5931 60.9003 51.17 60.3234C51.7469 59.7466 52.0713 58.9644 52.0721 58.1486Z" fill="black"/>
<path d="M59.5701 166.99C60.3864 166.99 61.1694 166.666 61.7469 166.089C62.3244 165.513 62.6493 164.73 62.6501 163.914V29.4957H125.242V163.917C125.242 164.733 125.566 165.515 126.143 166.092C126.72 166.669 127.503 166.994 128.319 166.994C129.135 166.994 129.918 166.669 130.495 166.092C131.072 165.515 131.396 164.733 131.396 163.917V26.4188C131.396 25.6024 131.072 24.8195 130.495 24.242C129.918 23.6644 129.135 23.3396 128.319 23.3387H59.5701C58.7553 23.3444 57.9755 23.6709 57.3996 24.2473C56.8237 24.8238 56.498 25.6039 56.4932 26.4188V163.917C56.4948 164.732 56.8196 165.513 57.3964 166.089C57.9731 166.666 58.7548 166.99 59.5701 166.99Z" fill="black"/>
<path d="M130.386 24.352C130.115 24.0794 129.793 23.8632 129.439 23.7159C129.084 23.5686 128.704 23.4931 128.319 23.4937H59.5704C58.7954 23.4953 58.0527 23.8041 57.505 24.3524C56.9573 24.9007 56.6493 25.6438 56.6484 26.4187V163.917C56.6731 164.676 56.992 165.395 57.5376 165.923C58.0831 166.451 58.8127 166.747 59.572 166.747C60.3313 166.747 61.0608 166.451 61.6064 165.923C62.152 165.395 62.4708 164.676 62.4955 163.917V29.3407H125.397V163.917C125.397 164.692 125.705 165.435 126.253 165.983C126.801 166.531 127.544 166.839 128.319 166.839C129.094 166.839 129.838 166.531 130.386 165.983C130.934 165.435 131.241 164.692 131.241 163.917V26.4187C131.243 26.0347 131.169 25.6542 131.022 25.2993C130.875 24.9444 130.659 24.6224 130.386 24.352Z" fill="black"/>
</svg>
