<svg width="194" height="200" viewBox="0 0 194 200" fill="none" xmlns="http://www.w3.org/2000/svg">
<path d="M96.8337 132.082C92.2435 132.091 87.8438 133.918 84.5979 137.164C81.3521 140.41 79.5246 144.809 79.5156 149.4V175.831H84.9847V149.4C84.9919 146.737 85.8945 144.154 87.5474 142.066C89.2003 139.978 91.5074 138.506 94.0977 137.888V175.846H99.5667V137.888C102.16 138.506 104.47 139.979 106.124 142.07C107.778 144.162 108.679 146.749 108.683 149.415V175.846H114.152V149.415C114.147 144.822 112.321 140.419 109.075 137.169C105.829 133.92 101.427 132.091 96.8337 132.082Z" fill="black"/>
<path d="M41.7537 124.791C39.0953 124.794 36.5468 125.851 34.6671 127.731C32.7873 129.611 31.7298 132.159 31.7266 134.818V156.691C31.7266 157.05 31.7974 157.405 31.9349 157.737C32.0724 158.069 32.274 158.37 32.5281 158.624C32.7822 158.878 33.0839 159.079 33.4158 159.216C33.7478 159.354 34.1035 159.424 34.4626 159.424H49.0447C49.7695 159.424 50.4647 159.136 50.9772 158.623C51.4897 158.111 51.7777 157.415 51.7777 156.691V134.818C51.7752 132.16 50.7184 129.611 48.8392 127.731C46.96 125.851 44.4117 124.794 41.7537 124.791ZM46.3086 153.958H37.1832V134.818C37.1674 134.209 37.2735 133.604 37.4953 133.037C37.7172 132.47 38.0503 131.954 38.475 131.518C38.8996 131.082 39.4073 130.736 39.968 130.499C40.5287 130.263 41.1312 130.141 41.7397 130.141C42.3483 130.141 42.9507 130.263 43.5114 130.499C44.0722 130.736 44.5798 131.082 45.0045 131.518C45.4292 131.954 45.7623 132.47 45.9841 133.037C46.206 133.604 46.3121 134.209 46.2962 134.818L46.3086 153.958Z" fill="#EFC94F"/>
<path d="M150.211 124.791C147.552 124.794 145.004 125.851 143.124 127.731C141.244 129.611 140.187 132.159 140.184 134.818V156.691C140.184 157.05 140.254 157.405 140.392 157.737C140.529 158.069 140.731 158.37 140.985 158.624C141.239 158.878 141.541 159.079 141.873 159.216C142.205 159.354 142.561 159.424 142.92 159.424H157.502C158.227 159.424 158.922 159.136 159.434 158.623C159.947 158.111 160.235 157.415 160.235 156.691V134.818C160.232 132.16 159.175 129.611 157.296 127.731C155.417 125.851 152.869 124.794 150.211 124.791ZM154.766 153.958H145.653V134.818C145.637 134.209 145.743 133.604 145.965 133.037C146.187 132.47 146.52 131.954 146.944 131.518C147.369 131.082 147.877 130.736 148.437 130.499C148.998 130.263 149.601 130.141 150.209 130.141C150.818 130.141 151.42 130.263 151.981 130.499C152.542 130.736 153.049 131.082 153.474 131.518C153.899 131.954 154.232 132.47 154.454 133.037C154.675 133.604 154.782 134.209 154.766 134.818V153.958Z" fill="#EFC94F"/>
<path d="M96.8356 85.7449C94.0166 85.7449 91.2608 86.5808 88.9168 88.147C86.5728 89.7132 84.7458 91.9394 83.667 94.5439C82.5882 97.1484 82.3059 100.014 82.8559 102.779C83.4059 105.544 84.7634 108.084 86.7568 110.077C88.7502 112.071 91.29 113.428 94.0549 113.978C96.8198 114.528 99.6858 114.246 102.29 113.167C104.895 112.088 107.121 110.261 108.687 107.917C110.253 105.573 111.089 102.818 111.089 99.9985C111.084 96.2197 109.581 92.5971 106.909 89.9251C104.237 87.2531 100.614 85.7498 96.8356 85.7449ZM96.8356 108.055C95.2422 108.055 93.6846 107.582 92.3598 106.697C91.0349 105.812 90.0023 104.554 89.3925 103.082C88.7827 101.609 88.6232 99.9895 88.9341 98.4268C89.2449 96.864 90.0122 95.4285 91.1389 94.3018C92.2656 93.1751 93.7011 92.4077 95.2639 92.0969C96.8267 91.786 98.4466 91.9456 99.9187 92.5553C101.391 93.1651 102.649 94.1977 103.534 95.5226C104.42 96.8475 104.892 98.4051 104.892 99.9985C104.892 102.135 104.043 104.184 102.532 105.695C101.022 107.206 98.9723 108.055 96.8356 108.055Z" fill="#EFC94F"/>
<path d="M184.338 175.521H176.442V121.915L179.649 123.08C179.983 123.202 180.335 123.264 180.691 123.263C181.408 123.265 182.102 123.013 182.652 122.553C183.202 122.093 183.571 121.453 183.695 120.747C183.819 120.041 183.69 119.313 183.33 118.693C182.971 118.073 182.403 117.6 181.729 117.357L141.626 102.787C140.868 102.512 140.031 102.549 139.3 102.891C138.569 103.233 138.004 103.851 137.728 104.609C137.453 105.367 137.489 106.204 137.829 106.935C138.17 107.667 138.786 108.233 139.544 108.51L170.354 119.712V175.521H132.693V94.957L134.862 96.9432L134.927 96.999C134.964 97.0331 135.002 97.0652 135.042 97.0951L135.163 97.1818L135.283 97.2686L135.398 97.3368L135.5 97.3925L135.677 97.4824L135.798 97.532L135.934 97.5816C135.972 97.5979 136.012 97.6103 136.052 97.6188C136.111 97.6373 136.173 97.6559 136.232 97.6683L136.334 97.69L136.511 97.7179L136.628 97.7334C136.724 97.7334 136.827 97.7489 136.938 97.7489C137.24 97.7487 137.539 97.7038 137.827 97.6156L137.889 97.6064C137.973 97.5785 138.057 97.5475 138.143 97.5103L138.236 97.4669C138.292 97.439 138.351 97.4111 138.429 97.3678L138.522 97.312L138.571 97.281C138.602 97.2593 138.636 97.2407 138.667 97.2159L138.766 97.1447L138.859 97.0734L138.918 97.0238L139.005 96.9432L139.147 96.8038L139.172 96.7821L139.24 96.6985L139.333 96.5869L139.414 96.4785L139.501 96.3483L139.578 96.2213C139.602 96.1802 139.624 96.1378 139.643 96.0942C139.668 96.0508 139.687 96.0106 139.714 95.9548L139.77 95.8123L139.786 95.772C139.801 95.7348 139.814 95.7007 139.826 95.6635L139.863 95.5303C139.878 95.4824 139.891 95.4338 139.9 95.3846C139.9 95.3382 139.922 95.2855 139.928 95.2545C139.934 95.2235 139.928 95.1492 139.95 95.0996C139.96 95.0401 139.966 94.9801 139.969 94.9199C139.969 94.8734 139.969 94.8269 139.969 94.768V80.1271C139.969 80.1271 139.969 80.0961 139.969 80.0682C139.969 80.0403 139.969 79.9721 139.969 79.8978C139.969 79.8234 139.969 79.7924 139.969 79.7521C139.969 79.7119 139.953 79.6437 139.947 79.6189C139.941 79.5941 139.928 79.5197 139.916 79.4609C139.904 79.402 139.882 79.3245 139.882 79.3245C139.882 79.2657 139.851 79.2161 139.842 79.1851C139.827 79.1357 139.809 79.0871 139.789 79.0395L139.73 78.8876L139.662 78.7513L139.603 78.6397C139.584 78.6057 139.563 78.5716 139.541 78.5375L139.525 78.5127C139.498 78.4662 139.47 78.4259 139.445 78.3918C139.42 78.3578 139.386 78.3082 139.346 78.2555L139.25 78.1378L139.163 78.0448C139.123 78.0014 139.085 77.9611 139.042 77.9209L138.996 77.8744L99.8818 42.324V32.1326H104.13C104.921 32.1074 105.67 31.7756 106.221 31.2074C106.771 30.6392 107.079 29.8793 107.079 29.0882C107.079 28.2972 106.771 27.5372 106.221 26.9691C105.67 26.4009 104.921 26.0691 104.13 26.0439H99.8818V21.4331C99.8948 21.0251 99.8257 20.6187 99.6786 20.238C99.5314 19.8573 99.3093 19.51 99.0253 19.2168C98.7413 18.9236 98.4013 18.6905 98.0255 18.5313C97.6496 18.3721 97.2456 18.29 96.8374 18.29C96.4293 18.29 96.0253 18.3721 95.6494 18.5313C95.2736 18.6905 94.9335 18.9236 94.6496 19.2168C94.3656 19.51 94.1434 19.8573 93.9963 20.238C93.8491 20.6187 93.78 21.0251 93.793 21.4331V26.0439H89.551C88.7604 26.0691 88.0106 26.4009 87.4603 26.9691C86.91 27.5372 86.6022 28.2972 86.6022 29.0882C86.6022 29.8793 86.91 30.6392 87.4603 31.2074C88.0106 31.7756 88.7604 32.1074 89.551 32.1326H93.7992V42.324L54.7009 77.862L54.6421 77.9178C54.5987 77.958 54.5584 78.0014 54.5181 78.0448L54.419 78.1533L54.3198 78.2772C54.2899 78.3139 54.262 78.3522 54.2361 78.3918C54.2081 78.4279 54.1833 78.4662 54.1618 78.5065L54.1339 78.5468L54.0843 78.6304L54.01 78.7668L53.9945 78.804C53.9772 78.8346 53.9627 78.8668 53.9511 78.9L53.9356 78.9341C53.9201 78.9713 53.9046 79.0054 53.8829 79.0642C53.8687 79.0987 53.8563 79.1339 53.8457 79.1696C53.8271 79.2223 53.8116 79.2718 53.7961 79.3307L53.7652 79.4578V79.4949C53.7652 79.5383 53.7652 79.5786 53.7652 79.5972C53.7528 79.6524 53.7435 79.7083 53.7373 79.7645L53.7218 79.9257C53.7218 79.9721 53.7218 80.0155 53.7218 80.0744V93.981C53.7215 94.1011 53.7287 94.2212 53.7435 94.3404C53.6685 94.957 53.7838 95.5818 54.0739 96.131C54.364 96.6802 54.8151 97.1275 55.3667 97.4131C55.9183 97.6987 56.544 97.8088 57.1599 97.7287C57.7759 97.6486 58.3526 97.3821 58.8128 96.9649L61.0128 94.9663V175.53H23.3213V119.712L54.1277 108.51C54.853 108.211 55.4349 107.644 55.7522 106.926C56.0694 106.209 56.0976 105.396 55.8308 104.659C55.5639 103.921 55.0227 103.314 54.3198 102.966C53.617 102.617 52.8067 102.553 52.0578 102.787L11.9432 117.369C11.2024 117.659 10.6043 118.227 10.2766 118.951C9.94892 119.676 9.91771 120.5 10.1897 121.248C10.4616 121.995 11.0151 122.607 11.7319 122.951C12.4486 123.296 13.2718 123.347 14.0254 123.092L17.2325 121.927V175.533H9.34034C8.93237 175.52 8.52595 175.59 8.14522 175.737C7.76449 175.884 7.41721 176.106 7.12402 176.39C6.83083 176.674 6.59771 177.014 6.43851 177.39C6.2793 177.766 6.19727 178.17 6.19727 178.578C6.19727 178.986 6.2793 179.39 6.43851 179.766C6.59771 180.142 6.83083 180.482 7.12402 180.766C7.41721 181.05 7.76449 181.272 8.14522 181.419C8.52595 181.566 8.93237 181.635 9.34034 181.622H184.338C185.128 181.597 185.878 181.265 186.428 180.697C186.979 180.129 187.286 179.369 187.286 178.578C187.286 177.787 186.979 177.027 186.428 176.459C185.878 175.89 185.128 175.559 184.338 175.533V175.521ZM98.9275 56.026L98.8748 55.9982C98.8149 55.9465 98.756 55.8969 98.6981 55.8494L98.6455 55.8122C98.5769 55.759 98.5055 55.7093 98.4317 55.6635L98.3945 55.6418C98.3387 55.6077 98.2829 55.5798 98.2086 55.5427C98.1775 55.5244 98.1454 55.5078 98.1125 55.4931L98.0103 55.4497L97.9111 55.4094L97.8243 55.3815L97.6725 55.3289C97.5314 55.2882 97.3874 55.2582 97.2418 55.239L96.9846 55.2142H96.8483C96.4328 55.2144 96.0218 55.2987 95.6398 55.4621L95.5593 55.4962L95.4353 55.5613L95.299 55.6325L95.2215 55.6821C95.1595 55.7193 95.1007 55.7596 95.0325 55.8091L94.9767 55.8556C94.9147 55.9021 94.859 55.9486 94.7908 56.0075L59.7765 87.8333V81.475L96.8359 47.7837L133.895 81.475V87.8302L99.0111 56.1221V56.0818L98.9275 56.026ZM67.0706 89.4322L96.839 62.3689L126.604 89.4322V175.521H67.0706V89.4322Z" fill="black"/>
</svg>
