<svg width="50" height="50" viewBox="0 0 50 50" fill="none" xmlns="http://www.w3.org/2000/svg">
<path d="M34.2085 28.727L32.6078 28.727C31.81 30.1819 30.552 31.3563 29.0149 32.0812C27.4779 32.806 25.7409 33.0439 24.0541 32.7607C22.3672 32.4775 20.8174 31.6878 19.6277 30.5051C18.438 29.3225 17.6697 27.8079 17.4333 26.1793C17.197 24.5508 17.5048 22.8922 18.3124 21.4423C19.1201 19.9923 20.386 18.8258 21.9279 18.1106C23.4698 17.3953 25.2083 17.1682 26.8932 17.4619C28.5781 17.7556 30.1226 18.555 31.3043 19.745L29.8042 21.242L33.702 21.242L33.702 17.4994L32.3171 18.7789C30.9009 17.3726 29.051 16.441 27.0409 16.122C25.0308 15.803 22.9672 16.1134 21.155 17.0074C19.3428 17.9013 17.8783 19.3314 16.9778 21.0862C16.0773 22.8411 15.7886 24.8275 16.1545 26.752C16.5204 28.6764 17.5214 30.4368 19.0096 31.7729C20.4977 33.109 22.3941 33.9499 24.4184 34.1714C26.4426 34.3928 28.4874 33.9831 30.2504 33.0026C32.0134 32.0222 33.4011 30.5231 34.2085 28.727Z" fill="white"/>
</svg>
