<svg width="140" height="140" viewBox="0 0 140 140" fill="none" xmlns="http://www.w3.org/2000/svg">
<g clip-path="url(#clip0)">
<path d="M11.6697 81.6656C12.9579 81.6656 14.0025 80.621 14.0025 79.3319V27.9991C14.0025 26.711 12.9579 25.6664 11.6697 25.6664C10.3805 25.6664 9.33594 26.711 9.33594 27.9991V79.3319C9.33594 80.621 10.3805 81.6656 11.6697 81.6656Z" fill="#EFC94F"/>
<path d="M11.6698 21.0001C12.9579 21.0001 14.0025 19.9554 14.0025 18.6662V13.9996C14.0025 12.7115 12.9579 11.6669 11.6698 11.6669C10.3806 11.6669 9.33594 12.7115 9.33594 13.9996V18.6662C9.33594 19.9554 10.3806 21.0001 11.6698 21.0001Z" fill="#EFC94F"/>
<path d="M70.001 46.6663C64.8464 46.6663 60.668 50.8447 60.668 55.9993C60.668 61.1539 64.8464 65.3323 70.001 65.3323C75.1556 65.3323 79.334 61.1539 79.334 55.9993C79.3287 50.8468 75.1535 46.6716 70.001 46.6663ZM70.001 60.6658C67.4237 60.6658 65.3345 58.5766 65.3345 55.9993C65.3345 53.422 67.4237 51.3328 70.001 51.3328C72.5783 51.3328 74.6675 53.422 74.6675 55.9993C74.6654 58.5755 72.5772 60.6637 70.001 60.6658Z" fill="#EFC94F"/>
<path d="M95.7034 46.6577H95.6735L91.3851 46.6556C90.6855 45.0641 89.8139 43.5538 88.7842 42.1525L90.9407 38.4109C92.1904 36.1743 91.416 33.3481 89.2008 32.0611L81.1441 27.4159C80.0814 26.7868 78.8104 26.6106 77.6162 26.9267C76.4146 27.2418 75.3871 28.0215 74.7591 29.0939L72.5994 32.8194C70.8712 32.625 69.1248 32.6261 67.3967 32.8237L65.2509 29.1046C63.9595 26.8755 61.1077 26.1118 58.8754 27.3967L50.7942 32.0632C48.565 33.3535 47.8003 36.2053 49.0841 38.4376L51.2321 42.1557C50.1982 43.5549 49.3245 45.0662 48.6281 46.6598L44.3172 46.6662C43.0761 46.6748 41.8884 47.1757 41.0147 48.058C40.1484 48.9263 39.6656 50.1055 39.6753 51.3328L39.6699 60.6487C39.6753 63.225 41.7516 65.3163 44.3279 65.3398L48.6174 65.343C48.9666 66.1387 49.3597 66.9142 49.7944 67.6672C50.2281 68.4191 50.7034 69.1465 51.2171 69.8461L49.0585 73.5898C47.811 75.8274 48.5875 78.6504 50.8016 79.9364L58.8551 84.5794C59.9178 85.2096 61.1899 85.3869 62.3851 85.0707C63.5868 84.7556 64.6153 83.9759 65.2434 82.9036L67.402 79.177C69.1313 79.3724 70.8765 79.3714 72.6058 79.1738L74.7505 82.8929C75.3679 83.9663 76.389 84.7482 77.5852 85.0643C77.9826 85.1711 78.3927 85.2256 78.8039 85.2256C79.62 85.2256 80.421 85.0099 81.126 84.6008L89.2072 79.9343C91.4363 78.6429 92.2011 75.7922 90.9172 73.5599L88.7714 69.8418C89.8043 68.4426 90.678 66.9323 91.3733 65.3376L95.6842 65.3323C96.9264 65.3238 98.1141 64.8228 98.9867 63.9395C99.8529 63.0711 100.336 61.892 100.327 60.6658L100.331 51.3498C100.329 48.7843 98.269 46.6951 95.7034 46.6577ZM89.7776 60.6733C88.7853 60.6754 87.902 61.3056 87.5773 62.2434C86.82 64.3945 85.6697 66.3865 84.1839 68.1158C83.5399 68.8677 83.4406 69.9433 83.9351 70.801L86.8745 75.8926L78.7922 80.5602L75.8528 75.4675C75.4352 74.7454 74.6651 74.3011 73.832 74.3011C73.6878 74.3011 73.5446 74.3139 73.4026 74.3406C71.1606 74.7604 68.861 74.7615 66.618 74.3428C65.6439 74.1537 64.6559 74.6045 64.1603 75.4643L61.2092 80.5516L53.1151 75.8926L56.0513 70.8031C56.5469 69.9443 56.4455 68.8666 55.7993 68.1158C54.321 66.379 53.1717 64.3881 52.4081 62.2391C52.0801 61.3045 51.1979 60.6775 50.2067 60.6775L44.3386 60.6604L44.3279 51.3328L50.2238 51.3242C51.2171 51.3231 52.1004 50.693 52.4251 49.7541C53.1814 47.603 54.3317 45.612 55.8174 43.8828C56.4615 43.1308 56.5619 42.0542 56.0674 41.1976L53.1269 36.106L61.2092 31.4384L64.1496 36.5311C64.642 37.3898 65.6258 37.8427 66.5988 37.6579C68.8407 37.2349 71.1414 37.2339 73.3834 37.6547C74.3585 37.8427 75.3444 37.393 75.8421 36.5343L78.7933 31.4448L86.8852 36.106L83.949 41.1954C83.4544 42.0531 83.5548 43.1308 84.201 43.8828C85.6804 45.6184 86.8307 47.6104 87.5955 49.7595C87.9234 50.694 88.8056 51.3199 89.7968 51.321L95.6649 51.3242L95.6735 60.6658L89.7776 60.6733Z" fill="#EFC94F"/>
<path d="M139.99 25.159C139.736 17.6214 133.542 11.6465 125.999 11.6668H32.6677V4.66644C32.6645 2.09019 30.5774 0.00206092 28.0012 -7.52771e-05H14.0006C10.2847 -0.00968814 6.71829 1.46215 4.09077 4.08967C1.46325 6.71719 -0.00858952 10.2836 0.00102336 13.9995V114.34C0.269116 121.878 6.27823 127.948 13.8147 128.292C13.8788 128.298 13.9354 128.331 14.0006 128.331H15.6113L19.0644 135.9C19.2385 136.275 19.4468 136.634 19.6839 136.972C19.7587 137.081 19.842 137.18 19.9221 137.285C20.0962 137.508 20.2831 137.721 20.4839 137.922C20.5822 138.022 20.6762 138.121 20.7808 138.214C21.0682 138.472 21.3758 138.708 21.7026 138.917C21.7742 138.963 21.8543 138.995 21.9291 139.037C22.21 139.201 22.5026 139.344 22.8038 139.466C22.8658 139.491 22.9202 139.53 22.9822 139.553C23.0602 139.582 23.1403 139.593 23.2182 139.618C23.4447 139.693 23.6743 139.756 23.9072 139.807C24.0514 139.841 24.1924 139.878 24.3365 139.901C24.6335 139.947 24.9315 139.974 25.2316 139.982C25.3 139.984 25.3683 140 25.4367 140C26.4375 139.999 27.4265 139.783 28.3366 139.365L52.529 128.331H107.333V135.331C107.335 137.907 109.423 139.995 112 139.998H125.999C133.728 139.989 139.99 133.726 139.999 125.998V25.6663C139.999 25.6385 139.984 25.6161 139.983 25.5883C139.983 25.4452 139.994 25.3031 139.99 25.159ZM7.38157 7.39863C9.13966 5.64695 11.5194 4.66431 14.0006 4.66644H28.0012V100.332H14.0006C10.556 100.333 7.23311 101.605 4.66754 103.903V13.9995C4.66434 11.5268 5.63951 9.15352 7.38157 7.39863ZM85.4071 107.055L80.4661 96.2227L95.4035 95.2379L95.8755 96.4886L85.4071 107.055ZM75.7868 97.2075L77.7232 101.454L62.8628 108.232C62.0916 108.57 61.5619 109.297 61.4775 110.135C61.3931 110.972 61.7669 111.79 62.4548 112.276C63.1426 112.761 64.0388 112.838 64.7993 112.477L79.6597 105.698L81.5962 109.945L51.1233 123.844L51.0806 123.863L39.1382 129.311L37.2007 125.064L54.1856 117.318C55.337 116.772 55.8379 115.401 55.3082 114.241C54.7794 113.082 53.4165 112.561 52.2491 113.073L35.2653 120.819L33.3289 116.573L75.7868 97.2075ZM26.4012 135.12C25.2295 135.654 23.8463 135.138 23.3112 133.966L19.4372 125.474C18.9042 124.301 19.419 122.918 20.5907 122.381L29.0842 118.507L31.9873 124.874V124.877L31.9895 124.88L34.8925 131.246L26.4012 135.12ZM62.7603 123.664L85.656 113.221C85.7735 113.152 85.8846 113.072 85.986 112.982C86.1131 112.914 86.2338 112.833 86.346 112.741L99.1247 99.8392C100.598 98.4721 101.027 96.3145 100.192 94.487L99.6513 93.3036C98.8406 91.4995 96.9735 90.409 95.004 90.5885L76.7887 91.7879C76.5366 91.8093 76.2888 91.8723 76.0559 91.9748C76.0292 91.9855 76.0004 91.9823 75.9748 91.9941L18.6543 118.137C16.4422 119.153 14.9202 121.247 14.6361 123.664H14.5613C9.28599 123.73 4.90893 119.601 4.66754 114.331V113.992C4.83737 108.964 8.9709 104.981 14.0006 104.998H28.0012C30.5774 104.996 32.6645 102.908 32.6677 100.332V16.3333H125.999C131.029 16.314 135.162 20.298 135.328 25.3256C135.394 27.7747 134.454 30.1438 132.728 31.8826C130.817 33.8618 128.188 34.9865 125.436 34.9993H112C109.423 35.0015 107.335 37.0896 107.333 39.6658V123.664H62.7603ZM125.999 135.331H112V39.6658H125.436C129.094 39.6477 132.618 38.2805 135.332 35.8271V125.998C135.327 131.151 131.152 135.326 125.999 135.331Z" fill="black"/>
</g>
<defs>
<clipPath id="clip0">
<rect width="140" height="140" fill="white"/>
</clipPath>
</defs>
</svg>
