<svg width="150" height="150" viewBox="0 0 150 150" fill="none" xmlns="http://www.w3.org/2000/svg">
<path d="M32.8125 140.2C37.9898 140.2 42.1875 136.004 42.1875 130.825C42.1875 125.648 37.9898 121.45 32.8125 121.45C27.6352 121.45 23.4375 125.648 23.4375 130.825C23.4375 136.004 27.6352 140.2 32.8125 140.2ZM32.8125 126.138C35.4012 126.138 37.5 128.237 37.5 130.825C37.5 133.414 35.4012 135.513 32.8125 135.513C30.2238 135.513 28.125 133.414 28.125 130.825C28.125 128.237 30.2238 126.138 32.8125 126.138Z" fill="#EFC94F"/>
<path d="M135.938 144.888V59.2312L75 20.2309L22.4133 53.8857L21.1658 44.5107C23.8152 42.9543 25.8854 40.5785 27.063 37.7415L75 7.04727L146.393 52.7367L148.92 48.7942L75 1.48087L28.0827 31.5159C27.6329 17.1535 16.357 3.35884 15.8672 2.76833L14.0625 0.585938L12.2601 2.7729C11.7542 3.37944 0 17.799 0 32.3879C0.00801088 37.3741 2.65503 41.9838 6.95915 44.5026L2.36435 78.9562L2.34375 149.575H7.03125V81.6067H21.0938V109.941L17.395 112.075H11.7188V149.575H124.219V112.075H119.173L112.819 88.4411L107.812 89.7823V55.8254H42.1875V97.7623L25.7812 107.236V79.2629L23.093 59.016L75 25.795L131.25 61.7958V149.575H150V144.888H135.938ZM7.36427 76.9192L11.4613 46.1998C13.179 46.534 14.946 46.534 16.6637 46.1998L20.7607 76.9192H7.36427ZM16.4062 41.4299V32.3879H11.7188V41.4299C7.59201 40.3645 4.70352 36.6497 4.6875 32.3879C4.6875 22.7325 10.9005 12.6698 14.0625 8.17451C17.2314 12.656 23.4375 22.6833 23.4375 32.3879C23.4215 36.6497 20.533 40.3645 16.4062 41.4299ZM72.6562 144.888H53.9062V116.763H72.6562V144.888ZM96.0938 144.888H77.3438V116.763H96.0938V144.888ZM119.531 116.763V144.888H100.781V116.763H119.531ZM109.51 94.1814L114.318 112.075H42.7551L109.51 94.1814ZM77.3438 60.5129H103.125V83.1161L94.2329 67.7181L77.3438 77.4685V60.5129ZM46.875 60.5129H72.6562V79.2629H46.875V60.5129ZM46.875 83.9504H66.1125L46.875 95.0581V83.9504ZM92.5175 74.1211L102.398 91.23L28.6102 111.017L92.5175 74.1211ZM49.2188 116.763V144.888H16.4062V116.763H49.2188Z" fill="black"/>
<rect x="42" y="55" width="66" height="5.5" fill="#EFC94F"/>
<path d="M46 84V79H72.5V60H77.5V77.5L66 84H46Z" fill="#EFC94F"/>
<path d="M42 97.8563L42 55.9999L47 55.9999L47 94.9999L42 97.8563Z" fill="#EFC94F"/>
<path d="M103 83L103 56L108 56L108 90L103 83Z" fill="#EFC94F"/>
</svg>
