<svg width="140" height="140" viewBox="0 0 140 140" fill="none" xmlns="http://www.w3.org/2000/svg">
<g clip-path="url(#clip0)">
<path d="M137.667 18.6679H116.667V2.33487C116.667 1.0469 115.624 0.00158691 114.334 0.00158691H91.0009C90.7769 0.00158691 90.5762 0.0692522 90.3709 0.129918L90.3592 0.092585L25.0273 18.7589L25.0366 18.7939C24.6586 18.9012 24.2993 19.0692 24.0169 19.3515L0.684094 42.6844C0.0167746 43.3517 -0.183888 44.355 0.177771 45.2276C0.53943 46.098 1.39341 46.6673 2.33606 46.6673H35.002V57.3677L0.686427 91.6833C0.0191079 92.3507 -0.181555 93.354 0.180105 94.2266C0.53943 95.0969 1.39341 95.6663 2.33606 95.6663H72.3346C73.2773 95.6663 74.1312 95.0969 74.4906 94.2266C74.8522 93.354 74.6516 92.3507 73.9842 91.6833L65.3347 83.0339V58.3337C65.3347 57.0457 64.2918 56.0004 63.0015 56.0004H49.0018C47.7114 56.0004 46.6685 57.0457 46.6685 58.3337V64.3676L39.6686 57.3677V46.6673H88.6676V137.665C88.6676 138.953 89.7106 139.999 91.0009 139.999H114.334C115.624 139.999 116.667 138.953 116.667 137.665V46.6673H137.667C138.957 46.6673 140 45.622 140 44.334V21.0012C140 19.7132 138.957 18.6679 137.667 18.6679ZM18.6691 42.0007H7.96861L18.6691 31.3003V42.0007ZM23.3356 26.6337L26.6349 23.3344H38.7026L23.3356 38.7014V26.6337ZM47.3521 71.6498C48.0218 72.3194 49.0251 72.5177 49.8954 72.1561C50.7681 71.7944 51.335 70.9428 51.335 70.0001V60.667H60.6682V83.9998C60.6682 84.6182 60.9132 85.2132 61.3518 85.6495L66.7021 90.9997H7.96861L37.3353 61.633L47.3521 71.6498ZM42.0019 42.0007H26.6349L42.0019 26.6337V42.0007ZM65.3347 42.0007H49.9677L65.3347 26.6337V42.0007ZM46.6685 38.7014V23.3344H62.0355L46.6685 38.7014ZM88.6676 42.0007H73.3006L88.6676 26.6337V42.0007ZM70.0013 38.7014V23.3344H85.3683L70.0013 38.7014ZM88.6676 18.6679H42.3262L88.6676 5.42881V18.6679ZM93.3342 4.66816H104.035L93.3342 15.3686V4.66816ZM93.3342 23.3344H108.701L93.3342 38.7014V23.3344ZM93.3342 46.6673H108.701L93.3342 62.0343V46.6673ZM93.3342 70.0001H108.701L93.3342 85.3671V70.0001ZM93.3342 93.333H108.701L93.3342 108.7V93.333ZM93.3342 116.666H108.701L93.3342 132.033V116.666ZM112 135.332H96.6334L112 119.965V135.332ZM112 111.999H96.6334L112 96.6322V111.999ZM112 88.6664H96.6334L112 73.2994V88.6664ZM112 65.3336H96.6334L112 49.9665V65.3336ZM112 42.0007H96.6334L112 26.6337V42.0007ZM112 18.6679H96.6334L110.633 4.66816H112V18.6679ZM116.667 23.3344H132.034L116.667 38.7014V23.3344ZM135.333 42.0007H119.966L135.333 26.6337V42.0007Z" fill="black"/>
<path d="M72.3348 104.999H2.33621C1.04591 104.999 0.00292969 106.045 0.00292969 107.333V137.665C0.00292969 138.953 1.04591 139.999 2.33621 139.999H30.3356H44.3353H72.3348C73.6251 139.999 74.668 138.953 74.668 137.665V107.333C74.668 106.045 73.6251 104.999 72.3348 104.999ZM42.0021 135.332H32.6689V118.999H42.0021V135.332ZM70.0015 135.332H46.6686V116.666C46.6686 115.378 45.6256 114.333 44.3353 114.333H30.3356C29.0453 114.333 28.0023 115.378 28.0023 116.666V135.332H4.6695V109.666H70.0015V135.332Z" fill="black"/>
<path d="M126.001 51.3339H121.334V56.0004H126.001V51.3339Z" fill="#EFC94F"/>
<path d="M126.001 60.6667H121.334V65.3333H126.001V60.6667Z" fill="#EFC94F"/>
<path d="M126.001 70H121.334V74.6666H126.001V70Z" fill="#EFC94F"/>
<rect x="1.91699" y="107.383" width="70.8333" height="30.7" stroke="#EFC94F" stroke-width="5.5"/>
</g>
<defs>
<clipPath id="clip0">
<rect width="140" height="140" fill="white"/>
</clipPath>
</defs>
</svg>
