<svg width="140" height="140" viewBox="0 0 140 140" fill="none" xmlns="http://www.w3.org/2000/svg">
<g clip-path="url(#clip0)">
<path d="M97.3438 117.305C95.8344 117.305 94.6094 118.53 94.6094 120.039C94.6094 121.548 95.8344 122.773 97.3438 122.773C98.8531 122.773 100.078 121.548 100.078 120.039C100.078 118.53 98.8531 117.305 97.3438 117.305Z" fill="#EFC94F"/>
<path d="M42.6562 117.305C41.1469 117.305 39.9219 118.53 39.9219 120.039C39.9219 121.548 41.1469 122.773 42.6562 122.773C44.1656 122.773 45.3906 121.548 45.3906 120.039C45.3906 118.53 44.1656 117.305 42.6562 117.305Z" fill="#EFC94F"/>
<path d="M122.403 103.143C119.325 98.379 115.095 94.5933 110.14 92.1485C109.722 91.7604 109.185 91.5004 108.588 91.434C105.004 89.9126 101.226 89.1406 97.3438 89.1406H89.1406V81.9265C93.8878 77.8534 97.3006 72.4585 98.9554 66.4453H100.078C106.109 66.4453 111.016 61.5388 111.016 55.5078C111.016 52.6499 109.913 50.0456 108.111 48.0949C108.283 47.9489 108.451 47.7969 108.612 47.6358C110.162 46.086 111.016 44.0262 111.016 41.836C111.016 38.2367 108.684 35.1734 105.453 34.0714C104.487 21.4977 95.6624 10.7527 83.5122 7.38502C82.7922 3.6247 77 0.93335 75.4688 0.93335H64.5312C63 0.93335 57.2078 3.6247 56.4878 7.38502C44.3387 10.7524 35.5149 21.4955 34.5472 34.0676C33.3709 34.4665 32.2922 35.1318 31.3876 36.0361C29.8378 37.5859 28.9844 39.6457 28.9844 41.836C28.9844 44.3415 30.1148 46.5869 31.891 48.0928C30.0885 50.0435 28.9844 52.6488 28.9844 55.5078C28.9844 61.5388 33.8909 66.4453 39.9219 66.4453H41.037C42.4184 71.4648 45.0376 76.0731 48.6916 79.8796C49.3782 80.5955 50.1061 81.2774 50.8594 81.9244V89.1406H42.6562C38.774 89.1406 34.9962 89.9126 31.4125 91.4337C30.8153 91.5004 30.2777 91.7602 29.8602 92.1482C24.9047 94.5933 20.6752 98.379 17.5971 103.143C14.3136 108.225 12.5781 114.068 12.5781 120.039V137.266C12.5781 138.776 13.8023 140 15.3125 140H124.688C126.198 140 127.422 138.776 127.422 137.266V120.039C127.422 114.068 125.686 108.225 122.403 103.143ZM28.9844 134.531H18.0469V120.039C18.0469 111.722 22.3076 103.75 28.9844 99.0178V134.531ZM100.078 60.9766H99.9534C100.035 60.0669 100.078 59.1538 100.078 58.2422V50.0391C103.094 50.0391 105.547 52.4924 105.547 55.5078C105.547 58.5233 103.094 60.9766 100.078 60.9766ZM56.3281 13.163V25.4297C56.3281 26.9399 57.5523 28.1641 59.0625 28.1641C60.5727 28.1641 61.7969 26.9399 61.7969 25.4297V9.58756C61.7969 9.58045 61.7969 9.57334 61.7969 9.56623V9.02345C61.7969 7.32924 63.228 5.46877 64.5312 5.46877H75.4688C76.7719 5.46877 78.2031 7.32924 78.2031 9.02345V9.56623C78.2031 9.57334 78.2031 9.58045 78.2031 9.58756V25.4297C78.2031 26.9399 79.4273 28.1641 80.9375 28.1641C82.4477 28.1641 83.6719 26.9399 83.6719 25.4297V13.163C92.5012 16.2876 98.875 24.2774 99.9253 33.6328H40.0747C41.125 24.2774 47.4988 16.2876 56.3281 13.163ZM39.9219 60.9766C36.9064 60.9766 34.4531 58.5233 34.4531 55.5078C34.4531 52.4924 36.9064 50.0391 39.9219 50.0391V58.2422C39.9219 59.1538 39.9651 60.0671 40.0466 60.9766H39.9219ZM39.9219 44.5703H37.1875C35.6798 44.5703 34.4531 43.3437 34.4531 41.836C34.4531 41.1064 34.7378 40.4198 35.2546 39.9033C35.7716 39.3862 36.458 39.1016 37.1875 39.1016H102.812C104.32 39.1016 105.547 40.3282 105.547 41.836C105.547 42.5655 105.262 43.2521 104.745 43.7686C104.229 44.2857 103.542 44.5703 102.812 44.5703H100.078H97.3438H42.6562H39.9219ZM45.8875 63.2141C45.882 63.1843 45.8768 63.1548 45.8702 63.1255C45.5528 61.5207 45.3906 59.8782 45.3906 58.2422V50.0391H94.6094V58.2422C94.6094 59.8768 94.4472 61.5183 94.1298 63.1244C94.1232 63.154 94.118 63.1838 94.1125 63.2136C92.8906 69.3131 89.5087 74.7731 84.5841 78.592C80.3059 81.9153 75.2629 83.6719 70 83.6719C64.7371 83.6719 59.6941 81.9153 55.4118 78.589C54.4316 77.8305 53.4986 76.9913 52.6378 76.0936C49.1884 72.5001 46.8554 68.0482 45.8875 63.2141ZM67.2656 134.531H45.3906V128.242C45.3906 126.732 44.1664 125.508 42.6562 125.508C41.1461 125.508 39.9219 126.732 39.9219 128.242V134.531H34.4531V96.1062C36.2277 95.4371 38.0559 94.9911 39.9219 94.7713V111.836C39.9219 113.346 41.1461 114.57 42.6562 114.57C44.1664 114.57 45.3906 113.346 45.3906 111.836V94.6094H52.4221L67.2656 110.195V134.531ZM56.3281 90.7813V85.6882C60.5475 87.9564 65.1949 89.1406 70 89.1406C74.8054 89.1406 79.453 87.9561 83.6719 85.6885V90.7813L70 105.137L56.3281 90.7813ZM105.547 134.531H100.078V128.242C100.078 126.732 98.8539 125.508 97.3438 125.508C95.8336 125.508 94.6094 126.732 94.6094 128.242V134.531H72.7344V110.195L87.5779 94.6094H94.6094V111.836C94.6094 113.346 95.8336 114.57 97.3438 114.57C98.8539 114.57 100.078 113.346 100.078 111.836V94.7713C101.944 94.9911 103.772 95.4374 105.547 96.1065V134.531ZM121.953 134.531H111.016V99.0175C117.692 103.75 121.953 111.722 121.953 120.039V134.531Z" fill="black"/>
<path d="M55.9863 26.1334C55.9863 27.7902 57.3295 29.1334 58.9863 29.1334C60.6432 29.1334 61.9863 27.7902 61.9863 26.1334H55.9863ZM77.9197 26.1334C77.9197 27.7902 79.2628 29.1334 80.9197 29.1334C82.5765 29.1334 83.9197 27.7902 83.9197 26.1334H77.9197ZM61.9863 26.1334V9.80005H55.9863V26.1334H61.9863ZM65.9863 5.80005H73.9197V-0.199951H65.9863V5.80005ZM77.9197 9.80005V26.1334H83.9197V9.80005H77.9197ZM73.9197 5.80005C76.1288 5.80005 77.9197 7.59091 77.9197 9.80005H83.9197C83.9197 4.2772 79.4425 -0.199951 73.9197 -0.199951V5.80005ZM61.9863 9.80005C61.9863 7.59091 63.7772 5.80005 65.9863 5.80005V-0.199951C60.4635 -0.199951 55.9863 4.27721 55.9863 9.80005H61.9863Z" fill="#EFC94F"/>
</g>
<defs>
<clipPath id="clip0">
<rect width="140" height="140" fill="white"/>
</clipPath>
</defs>
</svg>
