<svg width="200" height="52" viewBox="0 0 200 52" fill="none" xmlns="http://www.w3.org/2000/svg">
<path d="M32.9874 45.4123C32.5583 45.3999 32.1501 45.224 31.8466 44.9204C31.543 44.6169 31.367 44.2087 31.3547 43.7796C31.3497 43.5778 31.3858 43.3771 31.4609 43.1897C31.536 43.0024 31.6484 42.8323 31.7915 42.6898C31.949 42.5225 32.1386 42.3886 32.349 42.2961C32.5593 42.2035 32.7861 42.1542 33.0159 42.151H38.669V23.2164C38.6774 22.786 38.8521 22.3755 39.1564 22.0711C39.4608 21.7668 39.8713 21.5921 40.3017 21.5837H43.8608L25.4935 4.97962L7.12615 21.5837H10.6894C11.1198 21.5921 11.5302 21.7668 11.8346 22.0711C12.139 22.3755 12.3137 22.786 12.3221 23.2164V42.1388H23.5057V33.6449C23.5063 33.527 23.5186 33.4094 23.5425 33.2939L23.5792 33.1347L23.4568 33.0612C22.8369 32.7814 22.2812 32.3771 21.8241 31.8735C20.9435 30.9051 20.4483 29.6476 20.4323 28.3388V27.1143L20.9017 18.8449C20.9137 18.7043 20.978 18.5734 21.0819 18.4779C21.1858 18.3825 21.3218 18.3296 21.4629 18.3296C21.604 18.3296 21.7399 18.3825 21.8439 18.4779C21.9478 18.5734 22.0121 18.7043 22.0241 18.8449L22.4568 26.5102C22.4717 26.7268 22.5683 26.9296 22.727 27.0778C22.8858 27.2259 23.0948 27.3083 23.3119 27.3083C23.529 27.3083 23.738 27.2259 23.8967 27.0778C24.0554 26.9296 24.152 26.7268 24.167 26.5102L24.6037 18.8449C24.6111 18.702 24.6733 18.5674 24.7775 18.4693C24.8817 18.3712 25.0198 18.3172 25.1629 18.3184C25.3061 18.3181 25.4441 18.3724 25.5487 18.4702C25.6534 18.568 25.7168 18.702 25.7261 18.8449L26.1588 26.5102C26.1738 26.7268 26.2704 26.9296 26.4291 27.0778C26.5878 27.2259 26.7968 27.3083 27.0139 27.3083C27.231 27.3083 27.44 27.2259 27.5987 27.0778C27.7574 26.9296 27.854 26.7268 27.869 26.5102L28.3057 18.8449C28.3057 18.6966 28.3647 18.5544 28.4695 18.4495C28.5744 18.3447 28.7166 18.2857 28.8649 18.2857C29.0132 18.2857 29.1555 18.3447 29.2603 18.4495C29.3652 18.5544 29.4241 18.6966 29.4241 18.8449L29.8935 27.1225V28.347C29.9068 29.3089 29.6489 30.2552 29.1493 31.0774C28.6498 31.8995 27.9289 32.5645 27.069 32.9959L26.9547 33.0449L26.7302 33.1388L26.767 33.3061C26.7949 33.417 26.8099 33.5306 26.8119 33.6449V43.7755C26.8035 44.2059 26.6288 44.6164 26.3244 44.9207C26.02 45.2251 25.6096 45.3998 25.1792 45.4082H10.7057C10.2754 45.3998 9.86492 45.2251 9.56053 44.9207C9.25614 44.6164 9.08145 44.2059 9.07309 43.7755V24.8531H2.88941C2.55177 24.8411 2.22538 24.7287 1.95199 24.5302C1.6786 24.3317 1.47064 24.0561 1.35472 23.7388C1.23309 23.4575 1.20272 23.1451 1.26788 22.8457C1.33305 22.5462 1.49046 22.2747 1.71799 22.0694L24.3384 1.63268C24.6527 1.3269 25.0714 1.15184 25.5098 1.14288C25.9477 1.15463 26.3654 1.32928 26.6813 1.63268L49.3017 22.0898C49.5302 22.2944 49.6884 22.5659 49.7536 22.8657C49.8188 23.1654 49.7878 23.4781 49.6649 23.7592C49.549 24.0765 49.341 24.3521 49.0676 24.5506C48.7943 24.7491 48.4679 24.8615 48.1302 24.8735H41.9629V43.7959C41.9545 44.2263 41.7798 44.6368 41.4754 44.9412C41.1711 45.2455 40.7606 45.4202 40.3302 45.4286L32.9874 45.4123Z" fill="#F5CB45"/>
<path d="M68.633 24.1224L67.5024 20.7673H61.3269L60.2086 24.1224H57.082L62.9922 8.24487H65.8167L71.7637 24.1224H68.633ZM62.1024 18.4571H66.7351L64.4045 11.5183L62.1024 18.4571Z" fill="white"/>
<path d="M73.0322 28.7755V12.449H75.6404L75.7792 13.9347L76.0935 13.5592C76.4419 13.1263 76.8862 12.7804 77.3912 12.5488C77.8963 12.3172 78.4483 12.2061 79.0037 12.2245C79.6428 12.1929 80.2799 12.3199 80.8581 12.5941C81.4364 12.8682 81.9378 13.2811 82.3179 13.7959C83.1139 14.8612 83.5179 16.3551 83.5179 18.2408V18.4082C83.5179 20.2164 83.1098 21.6735 82.2935 22.7633C81.9236 23.2792 81.432 23.6956 80.8623 23.9755C80.2926 24.2553 79.6625 24.39 79.0281 24.3674C78.4976 24.3867 77.9696 24.2868 77.4828 24.0748C76.9961 23.8629 76.5631 23.5444 76.2159 23.1429L75.8608 22.7347V28.7755H73.0322ZM78.1506 14.4C77.0567 14.4 76.2935 14.8327 75.8771 15.6817L75.8567 15.7266V20.7919L75.8771 20.8327C76.0834 21.2575 76.4131 21.6103 76.8231 21.8447C77.2331 22.0792 77.7043 22.1846 78.1751 22.147C79.8445 22.147 80.6935 20.8 80.6935 18.1388C80.7466 17.1895 80.527 16.2449 80.0608 15.4164C79.8609 15.093 79.5787 14.8285 79.2431 14.65C78.9075 14.4714 78.5305 14.3851 78.1506 14.4Z" fill="white"/>
<path d="M92.4532 24.1225L90.1756 20.1102L87.9103 24.1225H84.9062L88.3756 18.151L85.0613 12.4286H88.0532L90.1634 16.2572L92.3226 12.4286H95.3022L91.9756 18.151L95.4491 24.1225H92.4532Z" fill="white"/>
<path d="M97.5838 24.1225V12.4286H100.408V24.1225H97.5838ZM99.0042 10.5633C98.5738 10.5877 98.1513 10.441 97.8287 10.1551C97.6841 10.0201 97.5705 9.85523 97.4958 9.67201C97.4211 9.48879 97.3871 9.29154 97.396 9.09388C97.387 8.90022 97.4187 8.70683 97.489 8.52615C97.5593 8.34548 97.6667 8.18154 97.8042 8.0449C98.1401 7.77768 98.5566 7.6322 98.9858 7.6322C99.415 7.6322 99.8316 7.77768 100.167 8.0449C100.308 8.17992 100.42 8.34308 100.493 8.5238C100.567 8.70452 100.602 8.89876 100.596 9.09388C100.603 9.29172 100.568 9.48883 100.493 9.67191C100.418 9.85498 100.304 10.0198 100.159 10.1551C99.8418 10.4359 99.4276 10.5823 99.0042 10.5633Z" fill="white"/>
<path d="M106.412 24.1225V14.6245H102.596V12.4286H113.13V14.6245H109.245V24.1225H106.412Z" fill="white"/>
<path d="M119.808 24.3469C119.039 24.3768 118.273 24.2529 117.553 23.9823C116.833 23.7117 116.175 23.3 115.616 22.7714C115.073 22.219 114.65 21.5605 114.373 20.8371C114.097 20.1137 113.972 19.341 114.008 18.5673V18.253C113.994 17.1642 114.228 16.0865 114.694 15.102C115.112 14.2204 115.779 13.48 116.612 12.9714C117.478 12.4648 118.466 12.2063 119.469 12.2245C121.057 12.2245 122.326 12.7265 123.224 13.7224C124.122 14.7183 124.6 16.1714 124.6 18.0285V19.1428H116.845L116.873 19.3755C116.95 20.1557 117.308 20.8812 117.881 21.4163C118.469 21.9349 119.233 22.2094 120.016 22.1836C120.564 22.2086 121.111 22.1117 121.617 21.9C122.123 21.6882 122.576 21.3669 122.943 20.9592L124.265 22.4367C123.793 23.0479 123.175 23.5318 122.469 23.8449C121.629 24.2045 120.721 24.3758 119.808 24.3469ZM119.441 14.4C119.122 14.3881 118.804 14.4446 118.509 14.5657C118.214 14.6868 117.949 14.8697 117.73 15.102C117.264 15.6623 116.979 16.3514 116.914 17.0775L116.881 17.3102H121.816V16.8653C121.841 16.2035 121.614 15.5569 121.179 15.0571C120.952 14.8315 120.68 14.6563 120.38 14.5431C120.08 14.4299 119.76 14.3811 119.441 14.4Z" fill="white"/>
<path d="M134.123 24.1225L131.482 19.6572H129.862V24.1225H127.037V12.4286H129.862V16.9796H131.335L133.976 12.4286H137.555L133.735 17.9837L137.927 24.1225H134.123Z" fill="white"/>
<path d="M142.653 24.1225V14.6245H138.841V12.4286H149.371V14.6245H145.49V24.1225H142.653Z" fill="white"/>
<path d="M152.833 29.0123C152.42 29.0088 152.008 28.954 151.609 28.849V26.7633H151.89C152.403 26.7962 152.915 26.689 153.372 26.4531C153.741 26.2072 154.021 25.8476 154.168 25.4286L154.576 24.3592L150.4 12.4286H153.441L155.841 20.4653L158.229 12.4286H161.258L156.486 26.1225L156.221 26.747C155.531 28.2735 154.421 29.0123 152.833 29.0123Z" fill="white"/>
<path d="M163.024 28.7755V12.449H165.633L165.771 13.9347L166.086 13.5592C166.43 13.1248 166.871 12.7764 167.373 12.5412C167.875 12.3061 168.425 12.1907 168.98 12.2041C169.619 12.1718 170.256 12.2984 170.834 12.5726C171.413 12.8469 171.914 13.2601 172.294 13.7755C173.09 14.8408 173.494 16.3347 173.494 18.2204V18.3878C173.494 20.1959 173.086 21.6531 172.269 22.7429C171.9 23.2588 171.408 23.6752 170.838 23.955C170.268 24.2349 169.638 24.3695 169.004 24.347C168.474 24.366 167.946 24.2659 167.459 24.054C166.972 23.8421 166.539 23.5238 166.192 23.1225L165.837 22.7143V28.7755H163.024ZM168.163 14.4C167.069 14.4 166.306 14.8327 165.89 15.6816L165.869 15.7265V20.7918L165.89 20.8327C166.095 21.2531 166.421 21.6027 166.826 21.8368C167.231 22.0709 167.696 22.1789 168.163 22.1469C169.837 22.1469 170.682 20.8 170.682 18.1388C170.734 17.1901 170.516 16.2461 170.053 15.4163C169.854 15.0966 169.575 14.8346 169.244 14.6563C168.912 14.4779 168.54 14.3896 168.163 14.4Z" fill="white"/>
<path d="M183.172 24.1225V19.4816H178.747V24.1225H175.923V12.4286H178.747V17.2816H183.172V12.4286H186.004V24.1225H183.172Z" fill="white"/>
<path d="M192.351 24.3469C191.324 24.3834 190.32 24.0339 189.538 23.3673C189.183 23.0681 188.899 22.6925 188.709 22.2685C188.519 21.8444 188.427 21.3829 188.441 20.9183C188.414 20.3783 188.524 19.8403 188.761 19.3543C188.997 18.8682 189.354 18.4501 189.796 18.1388C190.706 17.4816 192.053 17.1428 193.8 17.1347H195.49V16.2408C195.515 15.7066 195.345 15.1813 195.012 14.7632C194.814 14.5578 194.573 14.3995 194.306 14.2999C194.039 14.2003 193.753 14.1619 193.469 14.1877C192.961 14.1624 192.46 14.3186 192.057 14.6286C191.905 14.7552 191.78 14.9112 191.689 15.0872C191.599 15.2632 191.545 15.4557 191.53 15.653H188.702C188.74 15.0617 188.95 14.4944 189.306 14.0204C189.757 13.4246 190.36 12.962 191.053 12.6816C191.872 12.3448 192.751 12.1782 193.636 12.1918C194.868 12.1275 196.083 12.5085 197.057 13.2653C197.473 13.6433 197.799 14.1097 198.011 14.6303C198.223 15.1509 198.315 15.7124 198.281 16.2734V21.5306C198.262 22.4196 198.43 23.3028 198.775 24.1224H195.873C195.75 23.8301 195.666 23.5226 195.624 23.2081L195.555 22.8L195.269 23.1224C194.902 23.5282 194.451 23.8483 193.946 24.0599C193.442 24.2715 192.897 24.3695 192.351 24.3469ZM194.061 18.6326C192.326 18.6326 191.392 19.2571 191.277 20.4939V20.6898C191.27 20.907 191.31 21.1231 191.395 21.3233C191.479 21.5235 191.606 21.7028 191.767 21.849C192.128 22.1521 192.59 22.3068 193.061 22.2816C193.553 22.286 194.038 22.1682 194.473 21.9388C194.888 21.7328 195.229 21.4053 195.453 21L195.477 20.9551V18.6204L194.061 18.6326Z" fill="white"/>
<path d="M66.2903 45.3959L62.0984 38.7388H59.8454V45.3959H56.8984V29.5143H59.8454V36.0367H61.6984L65.678 29.5143H69.2821L64.3923 37.0204L69.8086 45.3959H66.2903Z" fill="white"/>
<path d="M72.3182 50.2857C71.9045 50.2834 71.4929 50.2272 71.0937 50.1184V48.0326H71.3754C71.8882 48.0656 72.4004 47.9583 72.857 47.7224C73.2258 47.4749 73.5039 47.1138 73.6488 46.6939L74.057 45.6286L69.8896 33.702H72.9305L75.3305 41.7388L77.7182 33.702H80.7468L75.9754 47.4122L75.7101 48.0367C75.0203 49.5469 73.9101 50.2857 72.3182 50.2857Z" fill="white"/>
<path d="M89.2082 45.3959L86.9266 41.3837L84.6613 45.3959H81.6572L85.1307 39.4245L81.8123 33.6979H84.8082L86.9144 37.5265L89.0735 33.6979H92.0572L88.7307 39.4245L92.2001 45.3959H89.2082Z" fill="white"/>
<path d="M101.416 45.3959V40.7551H96.9915V45.3959H94.167V33.6979H96.9915V38.5551H101.416V33.6979H104.253V45.3959H101.416Z" fill="white"/>
<path d="M114.036 45.3959V41.2245H111.665L109.338 45.4082H106.53L109.11 40.7878L108.91 40.6939C108.272 40.4164 107.723 39.9688 107.322 39.4C106.949 38.8562 106.754 38.2103 106.763 37.551C106.749 37.0283 106.859 36.5097 107.082 36.0369C107.305 35.5641 107.636 35.1502 108.049 34.8286C109.057 34.0636 110.298 33.6674 111.563 33.7061H116.849V45.4L114.036 45.3959ZM111.73 35.9184C111.181 35.8907 110.639 36.0601 110.204 36.3959C110.013 36.5453 109.859 36.7361 109.753 36.9539C109.647 37.1717 109.591 37.4108 109.592 37.6531C109.588 37.8891 109.64 38.1226 109.743 38.3351C109.846 38.5476 109.997 38.7333 110.183 38.8776C110.59 39.2007 111.097 39.3711 111.616 39.3592H114.04V35.9184H111.73Z" fill="white"/>
</svg>
